<?xml version="1.0" encoding="UTF-8"?>
<svg width="438px" height="327px" viewBox="0 0 438 327" version="1.1" xmlns="http://www.w3.org/2000/svg" xmlns:xlink="http://www.w3.org/1999/xlink">
    <title>4</title>
    <g id="Page-1" stroke="none" stroke-width="1" fill="none" fill-rule="evenodd">
        <g id="4" transform="translate(-931, -174)" fill="#D9D9D9" fill-rule="nonzero">
            <polygon id="Path" points="1150.01 501 1040.51 501 1150.01 392.001"></polygon>
            <polygon id="Path" points="1150 392.002 1150 283.003 1259.5 392.002"></polygon>
            <polygon id="Path" points="1150 501 1259.5 501 1150 392.002"></polygon>
            <polygon id="Path" points="1150.01 392.001 1150 283.003 1040.51 392.002"></polygon>
            <polygon id="Path" points="1150 282.999 1150 174 1259.5 282.999"></polygon>
            <polygon id="Path" points="1150.01 282.999 1150 174 1040.51 282.999"></polygon>
            <polygon id="Path" points="1259.5 392.002 1369 392.001 1259.5 501"></polygon>
            <polygon id="Path" points="1259.5 392.002 1259.5 283.003 1369 392.001"></polygon>
            <polygon id="Path" points="1259.5 283.007 1259.5 174.008 1369 283.007"></polygon>
            <polygon id="Path" points="1040.5 392.001 931 392.001 1040.5 501"></polygon>
            <polygon id="Path" points="1040.5 392.001 1040.5 283.003 931 392.001"></polygon>
            <polygon id="Path" points="1040.5 283.007 1040.5 174.008 931 283.007"></polygon>
        </g>
    </g>
</svg>