<?xml version="1.0" encoding="UTF-8"?>
<svg width="411px" height="328px" viewBox="0 0 411 328" version="1.1" xmlns="http://www.w3.org/2000/svg" xmlns:xlink="http://www.w3.org/1999/xlink">
    <title>3</title>
    <g id="Page-1" stroke="none" stroke-width="1" fill="none" fill-rule="evenodd">
        <g id="3" transform="translate(-781, -174)" fill="#D9D9D9" fill-rule="nonzero">
            <polygon id="Path" points="1027.57 256.053 945.379 338.107 945.38 174"></polygon>
            <polygon id="Path" points="863.189 256.054 945.38 174 945.379 338.107"></polygon>
            <polygon id="Path" points="863.189 256.054 781 338.107 781.001 174"></polygon>
            <polygon id="Path" points="1109.81 338.108 1027.62 256.054 1192 256.055"></polygon>
            <polygon id="Path" points="1109.81 256.054 1027.62 174 1192 174.001"></polygon>
            <polygon id="Path" points="1191.62 419.946 1109.43 502 1109.43 337.893"></polygon>
            <polygon id="Path" points="1109.43 419.946 1027.24 502 1027.25 337.893"></polygon>
            <polygon id="Path" points="945.845 501.785 863.656 419.731 1028.03 419.732"></polygon>
            <polygon id="Path" points="945.845 419.731 863.656 337.678 1028.03 337.678"></polygon>
            <polygon id="Path" points="863.656 337.893 781.574 337.893 863.656 419.839"></polygon>
            <polygon id="Path" points="863.656 419.839 781.574 419.839 863.656 501.785"></polygon>
        </g>
    </g>
</svg>