<?xml version="1.0" encoding="UTF-8"?>
<svg width="349px" height="263px" viewBox="0 0 349 263" version="1.1" xmlns="http://www.w3.org/2000/svg" xmlns:xlink="http://www.w3.org/1999/xlink">
    <title>2</title>
    <g id="Page-1" stroke="none" stroke-width="1" fill="none" fill-rule="evenodd">
        <g id="2" transform="translate(-588, -239)" fill="#D9D9D9" fill-rule="nonzero">
            <polygon id="Path" points="762.495 239.252 849.745 239.252 762.495 326.585"></polygon>
            <polygon id="Path" points="762.498 326.584 762.498 413.916 675.249 326.584"></polygon>
            <polygon id="Path" points="762.499 239.252 675.249 239.252 762.498 326.584"></polygon>
            <polygon id="Path" points="762.495 326.585 762.498 413.916 849.744 326.584"></polygon>
            <polygon id="Path" points="762.498 413.92 762.498 501.252 675.249 413.92"></polygon>
            <polygon id="Path" points="762.495 413.92 762.498 501.252 849.744 413.92"></polygon>
            <polygon id="Path" points="675.249 326.584 588 326.584 675.249 239.252"></polygon>
            <polygon id="Path" points="675.249 326.584 675.249 413.916 588 326.584"></polygon>
            <polygon id="Path" points="675.249 413.913 675.249 501.245 588 413.913"></polygon>
            <polygon id="Path" points="849.751 326.584 937 326.584 849.748 239.252"></polygon>
            <polygon id="Path" points="849.751 326.584 849.751 413.916 937 326.584"></polygon>
            <polygon id="Path" points="849.751 413.913 849.751 501.245 937 413.913"></polygon>
        </g>
    </g>
</svg>