<svg width="32" height="32" viewBox="0 0 32 32" fill="none" xmlns="http://www.w3.org/2000/svg">
<g clip-path="url(#clip0_224_886)">
<path d="M13.8673 12.9337L19.334 16.0004L13.8673 19.2004V12.9337Z" fill="#F6F6F6"/>
<path d="M16 0C24.8 0 32 7.2 32 16C32 24.8 24.8 32 16 32C7.2 32 0 24.8 0 16C0 7.2 7.2 0 16 0ZM16.2667 8.66667H15.7333C14.5333 8.66667 9.2 8.66667 7.73333 9.06667C6.93333 9.33334 6.13333 10 6 10.9333C5.6 12.4 5.6 15.3333 5.6 15.8667V16.1333C5.6 16.8 5.6 19.6 6 21.0667C6.26667 22 6.93333 22.6667 7.86667 22.9333C9.2 23.3333 14.2667 23.3333 15.7333 23.3333H16C16 23.3333 16 23.3333 16.1333 23.3333H16.2667C16.2667 23.3333 16.2667 23.3333 16.4 23.3333H16.6667C18.1333 23.3333 23.0667 23.3333 24.5333 22.9333C25.4667 22.6667 26.1333 22 26.4 21.0667C26.8 19.6 26.8 16.6667 26.8 16.1333V15.8667C26.8 15.2 26.8 12.4 26.4 10.9333C26.1333 10 25.4667 9.33334 24.5333 9.06667C22.8 8.66667 17.4667 8.66667 16.2667 8.66667Z" fill="#F6F6F6"/>
</g>
<defs>
<clipPath id="clip0_224_886">
<rect width="32" height="32" fill="white"/>
</clipPath>
</defs>
</svg>
