<svg width="32" height="32" viewBox="0 0 32 32" fill="none" xmlns="http://www.w3.org/2000/svg">
<g clip-path="url(#clip0_224_888)">
<path d="M19.8666 9.19759C21.7333 9.19759 23.3333 10.7976 23.3333 12.6643V19.8643C23.3333 21.7309 21.7333 23.3309 19.8666 23.3309H12.6666C10.7999 23.3309 9.19992 21.7309 9.19992 19.8643V12.6643C9.19992 10.7976 10.7999 9.19759 12.6666 9.19759H19.8666ZM16.2666 11.7309C13.7333 11.7309 11.7333 13.7309 11.7333 16.2643C11.7333 18.7976 13.7333 20.7976 16.2666 20.7976C18.7999 20.7976 20.7999 18.7976 20.7999 16.2643C20.7999 13.7309 18.7999 11.7309 16.2666 11.7309ZM20.7999 10.6643C20.1333 10.6643 19.7333 11.1976 19.7333 11.7309C19.7333 12.2643 20.2666 12.7976 20.7999 12.7976C21.4666 12.7976 21.8666 12.2643 21.8666 11.7309C21.8666 11.1976 21.4666 10.6643 20.7999 10.6643Z" fill="#F6F6F6"/>
<path d="M16 -0.00195312C24.8 -0.00195312 32 7.19805 32 15.998C32 24.798 24.8 31.998 16 31.998C7.2 31.998 0 24.798 0 15.998C0 7.19805 7.2 -0.00195312 16 -0.00195312ZM19.7333 7.33138H12.5333C9.6 7.33138 7.33333 9.73138 7.33333 12.5314V19.7314C7.33333 22.6647 9.73333 24.9314 12.5333 24.9314H19.7333C22.6667 24.9314 24.9333 22.5314 24.9333 19.7314V12.5314C25.0667 9.73138 22.6667 7.33138 19.7333 7.33138Z" fill="#F6F6F6"/>
<path d="M16.2675 19.0629C17.8139 19.0629 19.0675 17.8093 19.0675 16.2629C19.0675 14.7165 17.8139 13.4629 16.2675 13.4629C14.7211 13.4629 13.4675 14.7165 13.4675 16.2629C13.4675 17.8093 14.7211 19.0629 16.2675 19.0629Z" fill="#F6F6F6"/>
</g>
<defs>
<clipPath id="clip0_224_888">
<rect width="32" height="32" fill="white"/>
</clipPath>
</defs>
</svg>
