<svg width="32" height="32" viewBox="0 0 32 32" fill="none" xmlns="http://www.w3.org/2000/svg">
<g clip-path="url(#clip0_224_887)">
<path d="M16 0C24.8 0 32 7.2 32 16C32 24.8 24.8 32 16 32C7.2 32 0 24.8 0 16C0 7.2 7.2 0 16 0ZM8.53333 7.46667C8.13333 7.46667 7.73333 7.73334 7.46667 8C7.33333 8.26667 7.2 8.53333 7.2 8.8C7.2 13.6 7.2 18.4 7.2 23.2V23.3333C7.2 23.6 7.33333 23.7333 7.33333 24C7.6 24.4 8 24.5333 8.4 24.5333C10.9333 24.5333 13.3333 24.5333 15.8667 24.5333H23.3333C23.6 24.5333 23.8667 24.5333 24.1333 24.2667C24.5333 24 24.6667 23.7333 24.6667 23.2V8.66667C24.6667 8.4 24.5333 8.13334 24.4 7.86667C24.1333 7.46667 23.7333 7.33333 23.3333 7.33333L8.53333 7.46667Z" fill="#F6F6F6"/>
<path d="M16.8019 14.799C16.9352 14.6657 16.9352 14.6657 17.0685 14.5323C17.2019 14.399 17.4685 14.1323 17.7352 13.999C17.8685 13.999 18.0019 13.8657 18.1352 13.8657C18.2685 13.8657 18.2685 13.8657 18.4019 13.8657C18.5352 13.8657 18.6685 13.8657 18.8019 13.8657H18.9352C19.0685 13.8657 19.2019 13.8657 19.3352 13.8657C19.4685 13.8657 19.7352 13.8657 19.8685 13.8657C20.1352 13.8657 20.4019 13.999 20.6685 14.1323C21.0685 14.2657 21.3352 14.5323 21.4685 14.799C21.6019 14.9323 21.7352 15.199 21.7352 15.3323C21.7352 15.4657 21.8685 15.599 21.8685 15.8657C21.8685 15.999 22.0019 16.2657 22.0019 16.399C22.0019 16.799 22.1352 17.199 22.1352 17.599C22.1352 18.799 22.1352 20.1323 22.1352 21.3323C22.1352 21.4657 22.0019 21.599 21.8685 21.7323H21.7352C21.0685 21.7323 20.4019 21.7323 19.8685 21.7323C19.7352 21.7323 19.6019 21.599 19.4685 21.4657C19.4685 21.3323 19.4685 21.3323 19.4685 21.199C19.4685 20.1323 19.4685 19.0657 19.4685 18.1323C19.4685 17.999 19.4685 17.8657 19.4685 17.599C19.4685 17.4657 19.4685 17.199 19.4685 17.0657C19.3352 16.799 19.3352 16.5323 19.0685 16.2657C18.9352 16.1323 18.8019 16.1323 18.6685 15.999C18.4019 15.8657 18.2685 15.8657 18.0019 15.999C17.8685 15.999 17.6019 16.1323 17.4685 16.1323C17.2019 16.2657 17.0685 16.5323 16.9352 16.799C16.8019 16.9323 16.8019 17.199 16.8019 17.3323C16.8019 17.4657 16.8019 17.599 16.8019 17.7323C16.8019 18.9323 16.8019 20.1323 16.8019 21.3323C16.8019 21.4657 16.6685 21.599 16.5352 21.7323H16.4019C15.7352 21.7323 15.2019 21.7323 14.5352 21.7323C14.4019 21.7323 14.1352 21.599 14.1352 21.3323C14.1352 21.199 14.1352 21.0657 14.1352 20.9323C14.1352 18.799 14.1352 16.5323 14.1352 14.399C14.1352 14.2657 14.1352 14.1323 14.1352 13.999C14.1352 13.8657 14.2685 13.7323 14.4019 13.7323C14.5352 13.7323 14.5352 13.7323 14.6685 13.7323C15.2019 13.7323 15.7352 13.7323 16.4019 13.7323C16.6685 13.7323 16.8019 13.8657 16.8019 14.1323C16.8019 14.5323 16.8019 14.6657 16.8019 14.799Z" fill="#F6F6F6"/>
<path d="M9.86669 17.8674C9.86669 16.6674 9.86669 15.4674 9.86669 14.4008C9.86669 14.2674 9.86669 14.1341 10 14.0008C10.1334 13.8674 10.1334 13.8674 10.2667 13.8674C10.8 13.8674 11.3334 13.8674 12 13.8674C12.1334 13.8674 12.4 14.0008 12.4 14.1341V14.2674C12.4 16.6674 12.4 18.9341 12.4 21.3341C12.4 21.4674 12.2667 21.7341 12.1334 21.7341H12C11.4667 21.7341 10.8 21.7341 10.2667 21.7341C10.1334 21.7341 9.86669 21.4674 9.86669 21.3341C9.86669 20.2674 9.86669 19.0674 9.86669 17.8674Z" fill="#F6F6F6"/>
<path d="M11.0675 9.73187C11.4675 9.73187 11.8675 9.8652 12.1341 10.1319C12.4008 10.3985 12.5341 10.7985 12.5341 11.1985C12.5341 11.5985 12.4008 11.9985 12.1341 12.2652C11.7341 12.5319 11.4675 12.6652 11.0675 12.6652C10.2675 12.6652 9.60079 11.9985 9.60079 11.1985C9.60079 10.5319 10.2675 9.73187 11.0675 9.73187Z" fill="#F6F6F6"/>
</g>
<defs>
<clipPath id="clip0_224_887">
<rect width="32" height="32" fill="white"/>
</clipPath>
</defs>
</svg>
