<svg width="32" height="32" viewBox="0 0 32 32" fill="none" xmlns="http://www.w3.org/2000/svg">
<path d="M16 0C24.8366 0 32 7.16344 32 16C32 24.8366 24.8366 32 16 32C7.16344 32 0 24.8366 0 16C0 7.16344 7.16344 0 16 0ZM16.9541 19.1689C16.9541 19.776 16.8925 20.3168 16.7686 20.791C15.6744 23.2141 12.5379 22.8416 11.7764 21.124C10.9391 19.2377 11.9924 16.6034 15.1426 17.0693C15.1426 13.4123 15.1406 17.0689 15.1406 13.4131C7.51537 12.2012 4.9918 23.5255 12.5859 25.8096C16.9899 26.7771 20.359 23.9759 20.2959 19.373L20.3018 12.7402C21.9705 14.2367 24.6515 14.4324 25 14.4121C25 13.199 24.998 12.2772 24.998 11.0059C20.3962 10.7306 20.3078 6.32167 20.3066 6.0166L16.9541 6V19.1689Z" fill="white"/>
</svg>
