<svg width="32" height="32" viewBox="0 0 32 32" fill="none" xmlns="http://www.w3.org/2000/svg">
<g clip-path="url(#clip0_224_884)">
<path d="M15.9984 0C24.7984 0 31.9984 7.2 31.9984 16.1333C31.9984 24.1333 26.1317 30.8 18.5317 32V20.8H22.265L22.9317 16.1333H18.5317V13.0667C18.5317 11.7333 19.1984 10.5333 21.1984 10.5333H23.1984V6.53333C23.1984 6.53333 21.3317 6.26667 19.5984 6.26667C15.9984 6.26667 13.5984 8.53333 13.5984 12.5333V16.1333H9.59837V20.8H13.5984V32C5.99837 30.8 0.131705 24.1333 0.131705 16.1333C-0.00162803 7.2 7.19837 0 15.9984 0Z" fill="#F6F6F6"/>
</g>
<defs>
<clipPath id="clip0_224_884">
<rect width="32" height="32" fill="white"/>
</clipPath>
</defs>
</svg>
