<svg width="32" height="32" viewBox="0 0 32 32" fill="none" xmlns="http://www.w3.org/2000/svg">
<g clip-path="url(#clip0_444_1040)">
<path d="M16 0C7.164 0 0 7.164 0 16C0 24.836 7.164 32 16 32C24.836 32 32 24.836 32 16C32 7.162 24.836 0 16 0ZM10.112 20.008C7.87 20.008 6.054 18.192 6.054 15.95C6.054 13.708 7.87 11.892 10.112 11.892C12.354 11.892 14.17 13.708 14.17 15.95C14.17 18.192 12.354 20.008 10.112 20.008ZM21.93 20.008C19.688 20.008 17.872 18.192 17.872 15.95C17.872 13.708 19.688 11.892 21.93 11.892C24.172 11.892 25.988 13.708 25.988 15.95C25.988 18.192 24.172 20.008 21.93 20.008Z" fill="white"/>
</g>
<defs>
<clipPath id="clip0_444_1040">
<rect width="32" height="32" fill="white"/>
</clipPath>
</defs>
</svg>
