<svg width="249" height="51" viewBox="0 0 249 51" fill="none" xmlns="http://www.w3.org/2000/svg">
<g clip-path="url(#clip0_364_7413)">
<path d="M17.9535 0C8.0547 0 0 11.4375 0 25.4956C0 39.5537 8.0547 51 17.9535 51C27.8522 51 35.8982 39.5537 35.8982 25.4956C35.8982 11.4375 27.8522 0 17.9535 0ZM35.0806 25.4956C35.0806 39.1067 27.3999 50.1761 17.9535 50.1761C8.50702 50.1761 0.817648 39.1067 0.817648 25.4956C0.817648 11.8845 8.50702 0.823853 17.9535 0.823853C27.3999 0.823853 35.0806 11.8933 35.0806 25.4956Z" fill="white"/>
<path d="M10.6381 43.2347L8.35045 44.1112C8.35045 44.1112 8.32436 44.1287 8.31566 44.1462C8.31566 44.1638 8.31566 44.1813 8.33305 44.1988L8.48963 44.3654C8.48963 44.3654 8.52442 44.3829 8.54182 44.3741L10.0466 43.7957L9.47254 45.347C9.47254 45.347 9.47254 45.3908 9.48124 45.4083L9.73349 45.6712C9.73349 45.6712 9.75959 45.6888 9.76829 45.6888C9.76829 45.6888 9.76829 45.6888 9.77699 45.6888C9.79438 45.6888 9.81178 45.6712 9.81178 45.6537L10.6903 43.3049C10.6903 43.3049 10.6903 43.261 10.6816 43.2435C10.6642 43.226 10.6468 43.226 10.6294 43.2347H10.6381Z" fill="white"/>
<path d="M24.1467 44.2689C24.1467 44.2689 24.1032 44.2689 24.0858 44.2689C24.0684 44.2865 24.0597 44.304 24.0684 44.3215L24.7208 46.7405C24.7208 46.7405 24.7382 46.7756 24.7556 46.7756C24.7556 46.7756 24.7643 46.7756 24.773 46.7756C24.7817 46.7756 24.7991 46.7756 24.8078 46.7668L24.9818 46.6178C24.9818 46.6178 25.0079 46.5827 24.9992 46.5652L24.5729 44.9701L26.0256 45.6975C26.0256 45.6975 26.0691 45.6975 26.0865 45.6975L26.3648 45.4609C26.3648 45.4609 26.3822 45.4346 26.3822 45.4083C26.3822 45.3908 26.3648 45.3733 26.3561 45.3645L24.1641 44.2602L24.1467 44.2689Z" fill="white"/>
<path d="M2.07021 25.8725H2.08761L4.33179 24.8821C4.33179 24.8821 4.36658 24.8558 4.36658 24.8295C4.36658 24.812 4.35789 24.7857 4.33179 24.7769L2.1311 23.6989C2.1311 23.6989 2.09631 23.6989 2.07891 23.6989C2.06151 23.7077 2.05281 23.7252 2.05281 23.7427V23.9706C2.05281 23.9706 2.05281 24.0144 2.07891 24.0232L3.53154 24.7331L2.05281 25.3904C2.05281 25.3904 2.01802 25.4167 2.01802 25.443V25.8199C2.01802 25.8199 2.01802 25.855 2.03542 25.8637C2.04412 25.8637 2.05281 25.8725 2.06151 25.8725H2.07021Z" fill="white"/>
<path d="M13.3607 45.496C13.3607 45.496 13.2998 45.496 13.2911 45.5135L12.8823 46.2497C12.8214 46.2146 12.7518 46.1796 12.6909 46.1533L12.6648 46.0481C12.5866 45.68 12.4996 45.2944 12.4039 45.1016C12.3256 44.9526 12.256 44.8386 12.0908 44.7422C12.0386 44.7159 11.9951 44.6896 11.9429 44.6721C11.8559 44.6458 11.7254 44.6458 11.7254 44.6458C11.6993 44.6458 11.6819 44.6633 11.6732 44.6896C11.6732 44.7159 11.6732 44.7335 11.6906 44.751C11.6906 44.751 11.7602 44.8036 11.8037 44.8562C11.882 44.9438 11.9429 45.0928 11.9951 45.2418C12.056 45.4171 12.1603 45.7852 12.2299 46.0744C11.9864 46.0744 11.795 46.1971 11.6819 46.3899C11.5862 46.5652 11.5602 46.7317 11.621 46.8983C11.6819 47.0823 11.8472 47.2576 12.0995 47.4066L12.5344 47.6608C12.5344 47.6608 12.5518 47.6608 12.5605 47.6608C12.5605 47.6608 12.5692 47.6608 12.5779 47.6608C12.5953 47.6608 12.604 47.6432 12.6127 47.6345L13.6739 45.7414C13.6739 45.7414 13.6826 45.7151 13.6739 45.6975C13.6739 45.68 13.6652 45.6712 13.6478 45.6625L13.3607 45.496ZM12.343 47.1963L12.3082 47.17C12.2125 47.1086 11.9168 46.8895 12.0995 46.5652C12.1516 46.4688 12.2299 46.4075 12.3082 46.3812C12.3343 46.3812 12.3691 46.3724 12.3952 46.3724C12.4909 46.3724 12.6127 46.4075 12.7431 46.4776L12.343 47.1963Z" fill="white"/>
<path d="M21.8069 5.31999C21.8069 5.31999 21.833 5.31999 21.8417 5.31122L23.7031 3.68981C23.7031 3.68981 23.7205 3.66352 23.7205 3.63722C23.7205 3.61969 23.7031 3.60216 23.6944 3.5934L23.4943 3.49699C23.4943 3.49699 23.4509 3.49699 23.4335 3.49699L22.207 4.56625L22.2418 2.90978C22.2418 2.90978 22.2331 2.86596 22.2157 2.85719L21.8851 2.69943C21.8851 2.69943 21.8504 2.69943 21.833 2.69943C21.8156 2.7082 21.8069 2.72573 21.8069 2.74325L21.746 5.25864C21.746 5.25864 21.7547 5.30246 21.7721 5.31122H21.7895L21.8069 5.31999Z" fill="white"/>
<path d="M24.2076 6.66094C24.2076 6.66094 24.2598 6.67847 24.2859 6.66094L25.3993 5.4164L25.5037 7.87043C25.5037 7.87043 25.5037 7.89672 25.5211 7.90548L25.5907 7.9756C25.5907 7.9756 25.6168 7.99313 25.6254 7.99313C25.6428 7.99313 25.6515 7.99313 25.6602 7.9756L27.1042 6.37172C27.1042 6.37172 27.1216 6.34542 27.1216 6.33666C27.1216 6.31913 27.1216 6.31036 27.1042 6.3016L26.9563 6.16137C26.9563 6.16137 26.9041 6.14384 26.878 6.16137L25.8777 7.27445L25.8081 5.09211C25.8081 5.09211 25.8081 5.06582 25.7907 5.05706L25.5646 4.84671C25.5646 4.84671 25.5124 4.82918 25.4863 4.84671L24.0423 6.45059C24.0423 6.45059 24.0249 6.47689 24.0249 6.48565C24.0249 6.50318 24.0249 6.51195 24.0423 6.52071L24.1902 6.66094H24.2076Z" fill="white"/>
<path d="M26.7736 9.35161C26.7736 9.35161 26.7736 9.3779 26.7823 9.39543L26.9824 9.66713C26.9824 9.66713 27.0085 9.68466 27.0259 9.68466C27.0346 9.68466 27.052 9.68466 27.0607 9.67589L28.7482 8.34371C28.7482 8.34371 28.7743 8.29112 28.7569 8.26483L28.5568 7.99313C28.5568 7.99313 28.5394 7.9756 28.522 7.9756C28.5133 7.9756 28.4959 7.9756 28.4872 7.98436L26.7997 9.31655C26.7997 9.31655 26.7823 9.33408 26.7823 9.35161H26.7736Z" fill="white"/>
<path d="M28.2437 11.8758C28.2437 11.8758 28.2698 11.902 28.2872 11.902L30.714 11.718C30.714 11.718 30.7488 11.7092 30.7575 11.6917C30.7575 11.6742 30.7662 11.6566 30.7575 11.6391L30.6531 11.4375C30.6531 11.4375 30.6183 11.4025 30.6009 11.4112L29.0004 11.5339L29.9746 10.2105C29.9746 10.2105 29.992 10.1667 29.9746 10.1492L29.8007 9.81612C29.8007 9.81612 29.7746 9.78983 29.7572 9.78983C29.7398 9.78983 29.7224 9.78983 29.7137 9.80735L28.235 11.8056C28.235 11.8056 28.2176 11.8495 28.235 11.867L28.2437 11.8758Z" fill="white"/>
<path d="M30.4965 14.1457L30.6879 14.6453C30.6879 14.6453 30.7314 14.6891 30.7575 14.6804L30.9315 14.6102C30.9315 14.6102 30.9749 14.5664 30.9576 14.5401L30.7662 14.0406L31.4012 13.7864L31.6708 14.4875C31.6708 14.4875 31.6882 14.5138 31.6969 14.5138C31.7143 14.5138 31.723 14.5138 31.7404 14.5138L31.9144 14.4437C31.9144 14.4437 31.9579 14.3999 31.9405 14.3736L31.5316 13.3043C31.5316 13.3043 31.5142 13.2781 31.5056 13.2781C31.4969 13.2781 31.4795 13.2781 31.4621 13.2781L29.4875 14.0756C29.4875 14.0756 29.444 14.1194 29.4614 14.1457L29.8703 15.215C29.8703 15.215 29.8876 15.2413 29.8963 15.2413H29.9137H29.9311L30.0964 15.1712C30.0964 15.1712 30.1399 15.1273 30.1225 15.101L29.8529 14.3999L30.4878 14.1457H30.4965Z" fill="white"/>
<path d="M32.184 20.3159C32.097 20.5525 32.0188 20.7541 31.8448 20.7804C31.8187 20.7804 31.7926 20.7804 31.7578 20.7804C31.6534 20.7716 31.5577 20.684 31.5404 20.5788C31.5404 20.57 31.5404 20.5613 31.5404 20.5437C31.5404 20.5087 31.5404 20.4824 31.5404 20.4473C31.5404 20.2983 31.6534 20.088 31.7578 19.9741L31.8361 19.8864C31.8361 19.8864 31.8535 19.8426 31.8448 19.8251C31.8361 19.8075 31.81 19.79 31.7926 19.7988L31.4012 19.8601C31.4012 19.8601 31.3751 19.8689 31.3664 19.8776H31.3577C31.2533 20.0266 31.2011 20.2808 31.2359 20.4824C31.2881 20.833 31.5317 21.1835 31.8883 21.1835C31.9144 21.1835 31.9492 21.1835 31.9753 21.1835C32.3841 21.1134 32.5146 20.7453 32.6103 20.4473C32.6885 20.2019 32.7581 20.0179 32.9234 19.9828C32.9495 19.9828 32.9756 19.9828 33.0017 19.9828C33.0887 20.0003 33.167 20.0705 33.193 20.1581C33.193 20.1756 33.193 20.1844 33.2017 20.2019C33.2017 20.2282 33.2017 20.2545 33.2017 20.2808C33.2017 20.4035 33.1235 20.5613 33.0104 20.7015L32.9408 20.7804C32.9408 20.7804 32.9234 20.8242 32.9408 20.8417C32.9495 20.8593 32.9756 20.8768 32.993 20.868L33.367 20.8067C33.367 20.8067 33.4018 20.7891 33.4105 20.7804V20.7628C33.4975 20.5876 33.5236 20.421 33.4888 20.2195C33.4627 20.0617 33.3844 19.9039 33.28 19.79C33.1843 19.6936 33.0191 19.5797 32.7842 19.6147C32.4102 19.6761 32.2797 20.0266 32.1753 20.3071L32.184 20.3159Z" fill="white"/>
<path d="M31.5143 22.8488L31.5403 23.1906C31.5403 23.1906 31.5403 23.2169 31.5577 23.2256C31.5664 23.2256 31.5838 23.2432 31.5925 23.2432L33.7149 23.0766C33.7149 23.0766 33.7671 23.0504 33.7671 23.0153L33.741 22.6735C33.741 22.6735 33.741 22.6472 33.7236 22.6384C33.7149 22.6297 33.6975 22.6209 33.6888 22.6297L31.5664 22.7962C31.5664 22.7962 31.5143 22.8225 31.5143 22.8575V22.8488Z" fill="white"/>
<path d="M33.828 24.6805C33.828 24.6805 33.8019 24.663 33.7932 24.663H33.6106C33.5845 24.663 33.5584 24.6893 33.5584 24.7156V25.4606L31.6621 25.443C31.6447 25.443 31.636 25.443 31.6273 25.4606C31.6186 25.4693 31.6099 25.4869 31.6099 25.4956V25.8374C31.6099 25.8374 31.6273 25.89 31.6621 25.89L33.5497 25.9075V26.6525C33.5497 26.6525 33.5497 26.6788 33.5497 26.6876C33.5584 26.6963 33.5758 26.7051 33.5845 26.7051H33.7671C33.7932 26.7051 33.8193 26.6788 33.8193 26.6525L33.8367 24.7068C33.8367 24.7068 33.8367 24.6805 33.8193 24.6718L33.828 24.6805Z" fill="white"/>
<path d="M32.732 31.508C32.3667 31.4291 32.1231 31.7096 31.9318 31.9374C31.7752 32.1215 31.6273 32.2968 31.4534 32.253C31.4273 32.253 31.4012 32.2354 31.3751 32.2267C31.2794 32.1741 31.2185 32.0689 31.2359 31.955C31.2359 31.9462 31.2359 31.9374 31.2359 31.9287C31.2359 31.8936 31.2533 31.8673 31.262 31.8323C31.3142 31.692 31.4882 31.5343 31.6273 31.4642L31.7317 31.4116C31.7317 31.4116 31.7665 31.3765 31.7578 31.359C31.7578 31.3327 31.7404 31.3152 31.7143 31.3152L31.3316 31.2363C31.3316 31.2363 31.3055 31.2363 31.2968 31.2363H31.2794C31.1402 31.3415 31.001 31.5606 30.9662 31.7622C30.888 32.139 31.0271 32.5948 31.436 32.6737C31.8448 32.7525 32.0883 32.4545 32.2797 32.2091C32.4537 31.99 32.5754 31.8586 32.732 31.8936C32.7581 31.8936 32.7842 31.9112 32.8016 31.9199C32.8799 31.9637 32.9321 32.0601 32.9234 32.1566C32.9234 32.1741 32.9234 32.1829 32.9234 32.2004C32.9234 32.2267 32.9147 32.253 32.906 32.2705C32.8625 32.3844 32.7407 32.5071 32.5928 32.5948L32.4972 32.6474C32.4972 32.6474 32.4711 32.6824 32.4711 32.7C32.4711 32.7262 32.4885 32.7438 32.5146 32.7438L32.8886 32.8227C32.8886 32.8227 32.8886 32.8227 32.8973 32.8227C32.9147 32.8227 32.9234 32.8227 32.9321 32.8051L32.9495 32.7876C33.08 32.6561 33.1582 32.4984 33.2017 32.3056C33.2365 32.1478 33.2104 31.9725 33.1495 31.8235C33.0974 31.7008 32.9756 31.5343 32.7407 31.4905L32.732 31.508Z" fill="white"/>
<path d="M29.7746 40.0357C29.4527 39.8342 29.1309 40.0182 28.8786 40.1672C28.6699 40.2811 28.4785 40.3951 28.3219 40.3074C28.3046 40.2987 28.2785 40.2724 28.2611 40.2549C28.1828 40.176 28.1654 40.0533 28.2176 39.9481C28.2176 39.9481 28.2176 39.9306 28.235 39.9218C28.2524 39.8955 28.2698 39.8692 28.2872 39.8429C28.3828 39.729 28.5916 39.6413 28.7482 39.6238H28.8612C28.8612 39.6238 28.9047 39.5888 28.9047 39.5712C28.9047 39.5537 28.9047 39.5274 28.8786 39.5099L28.5394 39.2995C28.5394 39.2995 28.5133 39.2908 28.4959 39.2995H28.4785C28.3132 39.3434 28.1132 39.5099 28.0175 39.6764C27.9131 39.8517 27.8696 40.0533 27.887 40.2286C27.9044 40.4301 28.0001 40.5967 28.1654 40.6931C28.522 40.9122 28.8525 40.7106 29.1135 40.5528C29.331 40.4214 29.4962 40.3162 29.6441 40.4126C29.6789 40.4301 29.705 40.4564 29.7224 40.4915C29.7659 40.5528 29.7746 40.6405 29.7398 40.7194C29.7398 40.7369 29.7224 40.7544 29.7137 40.772C29.705 40.7895 29.6876 40.8158 29.6702 40.8333C29.5919 40.9297 29.4353 40.9998 29.2614 41.0349L29.157 41.0524C29.157 41.0524 29.1222 41.0699 29.1135 41.0962C29.1135 41.1225 29.1135 41.1401 29.1396 41.1576L29.4701 41.3592C29.4701 41.3592 29.4875 41.3592 29.4962 41.3592C29.4962 41.3592 29.5136 41.3592 29.5223 41.3592H29.5397C29.705 41.2715 29.8268 41.1488 29.9311 40.9823C30.0094 40.8508 30.0442 40.6755 30.0355 40.5266C30.0268 40.3863 29.9746 40.1847 29.7659 40.062L29.7746 40.0357Z" fill="white"/>
<path d="M28.5046 42.6563C28.5046 42.6563 28.4785 42.6388 28.4698 42.6475C28.4524 42.6475 28.4437 42.6475 28.435 42.6651L27.974 43.2435L26.5127 42.0077C26.5127 42.0077 26.4605 41.9902 26.4344 42.0077L26.2256 42.2707C26.2256 42.2707 26.2082 42.297 26.2169 42.3145C26.2169 42.332 26.2169 42.3408 26.2343 42.3495L27.6957 43.5853L27.2346 44.1638C27.2346 44.1638 27.2172 44.1901 27.2259 44.2076C27.2346 44.2251 27.2259 44.2339 27.2433 44.2426L27.3825 44.3653C27.3825 44.3653 27.4086 44.3741 27.4173 44.3741C27.4347 44.3741 27.4434 44.3741 27.4608 44.3566L28.6612 42.8579C28.6612 42.8579 28.6786 42.7965 28.6612 42.779L28.522 42.6563H28.5046Z" fill="white"/>
<path d="M22.2418 45.7589C22.2418 45.7589 22.1983 45.7151 22.1722 45.7326L21.7373 45.9166C21.2937 46.1095 20.9805 46.3549 20.7978 46.6353C20.6065 46.9508 20.5804 47.3014 20.737 47.6695C20.9109 48.099 21.2241 48.3093 21.659 48.2918C21.9895 48.283 22.3375 48.1428 22.5723 48.0376L23.0333 47.836C23.0333 47.836 23.0594 47.8185 23.0594 47.8098C23.0594 47.7922 23.0594 47.7835 23.0594 47.7659L22.2331 45.7501L22.2418 45.7589ZM22.4592 47.7747C21.7721 48.0552 21.3197 47.9237 21.0849 47.3452C21.0066 47.1524 20.9892 47.0122 21.0414 46.8281C21.0588 46.758 21.1023 46.6879 21.1545 46.6353C21.3023 46.4863 21.4763 46.3461 21.8416 46.1971L21.9373 46.1533L22.581 47.7221L22.4592 47.7747Z" fill="white"/>
<path d="M19.0756 46.723C19.0756 46.723 19.0495 46.7055 19.0408 46.7142L18.7102 46.7493C18.7102 46.7493 18.658 46.7756 18.658 46.8106L18.8581 48.9842C18.8581 48.9842 18.8581 49.0105 18.8755 49.0193C18.8842 49.0193 18.8929 49.028 18.9103 49.028L19.2408 48.993C19.2408 48.993 19.293 48.9667 19.293 48.9316L19.093 46.758C19.093 46.758 19.093 46.7317 19.0756 46.723Z" fill="white"/>
<path d="M16.0833 46.5126C15.4831 46.3899 14.7786 46.7054 14.6481 47.4329C14.5872 47.7659 14.6481 48.0727 14.822 48.3269C15.0047 48.581 15.2831 48.7475 15.6484 48.8177C15.7354 48.8352 15.8137 48.844 15.9006 48.844C16.3965 48.844 16.9618 48.5547 17.0836 47.8974C17.1445 47.5644 17.0836 47.2576 16.9097 47.0034C16.727 46.7493 16.4486 46.5827 16.0833 46.5126ZM16.6487 47.8185C16.6052 48.0289 16.5356 48.1866 16.4312 48.3269C16.3356 48.4496 16.2051 48.5197 16.0572 48.5372C15.9702 48.546 15.8919 48.5372 15.8137 48.5372C15.4831 48.4671 15.3005 48.2655 15.2135 48.1077C15.1004 47.9237 15.0569 47.6871 15.0917 47.5118C15.1352 47.3014 15.2048 47.1437 15.3092 47.0034C15.4048 46.8807 15.5353 46.8106 15.6832 46.7931C15.718 46.7931 15.7528 46.7931 15.7876 46.7931C15.8398 46.7931 15.8832 46.7931 15.9354 46.8106C16.266 46.8807 16.4486 47.0823 16.5356 47.2401C16.6487 47.4241 16.6922 47.652 16.6574 47.8361L16.6487 47.8185Z" fill="white"/>
<path d="M8.95934 41.4468L8.85496 41.2715C8.85496 41.2715 8.83756 41.254 8.82017 41.2452C8.80277 41.2452 8.79407 41.2452 8.77667 41.2452L7.53281 42.0603L8.33306 40.4827C8.33306 40.4827 8.33306 40.4477 8.33306 40.4301L8.29826 40.3688C8.29826 40.3688 8.27217 40.3425 8.25477 40.3425L6.62817 40.3776L7.78506 39.6238C7.78506 39.6238 7.80246 39.6063 7.81115 39.5888C7.81115 39.5712 7.81115 39.5625 7.81115 39.5449L7.63719 39.2557C7.63719 39.2557 7.585 39.2207 7.5676 39.2382L5.77573 40.4126C5.77573 40.4126 5.74094 40.4652 5.75833 40.4915L5.87141 40.6668C5.87141 40.6668 5.89751 40.7018 5.91491 40.6931L7.78506 40.6668L6.93262 42.3495C6.93262 42.3495 6.93262 42.3846 6.93262 42.4021L7.09789 42.6651C7.09789 42.6651 7.12398 42.6914 7.14138 42.6914C7.15008 42.6914 7.15877 42.6914 7.16747 42.6914L8.95934 41.5169C8.95934 41.5169 8.99413 41.4643 8.97674 41.438L8.95934 41.4468Z" fill="white"/>
<path d="M4.93199 32.1916L3.31409 32.4984L4.65364 30.4826V30.465C4.65364 30.465 4.67103 30.4387 4.67103 30.4212L4.65364 30.3248C4.65364 30.3248 4.61884 30.2722 4.59275 30.281L2.50514 30.6754C2.50514 30.6754 2.47904 30.6841 2.47034 30.7017C2.47034 30.7104 2.46164 30.728 2.47034 30.7455L2.50514 30.9471C2.50514 30.9471 2.53993 30.9997 2.56602 30.9909L4.00996 30.7192L2.80088 32.5071C2.80088 32.5071 2.79218 32.5334 2.80088 32.551L2.85307 32.8577C2.85307 32.8577 2.86177 32.884 2.87917 32.8928C2.88786 32.8928 2.89656 32.9015 2.90526 32.9015C2.90526 32.9015 2.90526 32.9015 2.91396 32.9015L5.00157 32.5071C5.00157 32.5071 5.02767 32.4984 5.03637 32.4808C5.03637 32.4721 5.04506 32.4545 5.03637 32.437L5.00157 32.2354C5.00157 32.2354 4.96678 32.1829 4.94068 32.1916H4.93199Z" fill="white"/>
<path d="M5.14945 17.2483C5.14945 17.2483 5.10596 17.2658 5.09726 17.2834C5.09726 17.2834 5.07117 17.371 5.03637 17.4324C4.97548 17.5375 4.85371 17.6427 4.74063 17.7304C4.60145 17.8443 4.28831 18.0546 4.03606 18.2124C3.95777 17.9758 3.7925 17.818 3.57504 17.7654C3.38368 17.7216 3.21841 17.7567 3.07924 17.8531C2.92267 17.967 2.81828 18.1773 2.7574 18.4753L2.65302 18.9749C2.65302 18.9749 2.66171 19.0363 2.69651 19.0363L4.76672 19.5095C4.76672 19.5095 4.76672 19.5095 4.77542 19.5095C4.78412 19.5095 4.79282 19.5095 4.80152 19.5095C4.81021 19.5095 4.81891 19.492 4.82761 19.4745L4.8972 19.1414C4.8972 19.1414 4.8885 19.0801 4.85371 19.0801L4.05346 18.896C4.07085 18.8259 4.07955 18.747 4.07955 18.6857L4.16653 18.6331C4.48837 18.4403 4.81891 18.2475 4.96679 18.0897C5.07986 17.9758 5.16685 17.8618 5.21034 17.6778C5.21904 17.6252 5.23644 17.5726 5.23644 17.5113C5.23644 17.4148 5.19294 17.2921 5.19294 17.2921C5.19294 17.2658 5.15815 17.2571 5.14075 17.2571L5.14945 17.2483ZM3.8099 18.8347L3.02705 18.6594V18.6156C3.06184 18.5016 3.18362 18.1511 3.54025 18.2299C3.64463 18.2562 3.72292 18.3088 3.77511 18.3789C3.836 18.4841 3.85339 18.6331 3.8186 18.8347H3.8099Z" fill="white"/>
<path d="M31.0532 18.7996C31.0532 18.7996 31.0793 18.8172 31.088 18.8172C31.088 18.8172 31.1054 18.8172 31.1141 18.8172C31.1315 18.8084 31.1402 18.7821 31.1402 18.7558C31.1402 18.7558 31.1228 18.6682 31.1315 18.598C31.1315 18.4753 31.1924 18.3351 31.2533 18.1861C31.3403 17.9845 31.5577 17.5901 31.6534 17.4236C31.8274 17.5901 32.0449 17.6515 32.2623 17.5901C32.4537 17.5375 32.5842 17.4324 32.6537 17.2746C32.732 17.0993 32.7407 16.8627 32.6537 16.5735L32.5233 16.0739C32.5233 16.0739 32.5146 16.0476 32.4972 16.0388C32.4885 16.0388 32.4711 16.0301 32.4537 16.0388L30.4096 16.6261C30.4096 16.6261 30.3835 16.6348 30.3748 16.6523C30.3748 16.6611 30.3661 16.6786 30.3748 16.6962L30.4617 17.0292C30.4617 17.0292 30.4704 17.0555 30.4878 17.0643C30.4965 17.0643 30.5139 17.073 30.5313 17.0643L31.3229 16.8364C31.3403 16.9065 31.3664 16.9766 31.3925 17.038L31.3403 17.1256C31.1489 17.4499 30.9402 17.783 30.8793 17.9933C30.8271 18.1511 30.8097 18.2913 30.8532 18.4753C30.8706 18.5367 30.8793 18.5805 30.9054 18.6331C30.9489 18.7207 31.0358 18.8084 31.0445 18.8084L31.0532 18.7996ZM32.3493 16.5296V16.5735C32.3841 16.6874 32.445 17.0555 32.097 17.1607C31.9927 17.187 31.897 17.187 31.8187 17.1432C31.7143 17.0818 31.636 16.9503 31.5751 16.7575L32.3493 16.5384V16.5296Z" fill="white"/>
<path d="M6.62817 13.5497C6.62817 13.5497 6.64557 13.5497 6.65427 13.5497C6.65427 13.5497 6.66297 13.5497 6.67166 13.5497C6.68906 13.5497 6.69776 13.5322 6.69776 13.5235L7.17617 12.4893C7.17617 12.4893 7.17617 12.463 7.17617 12.4454C7.17617 12.4279 7.15877 12.4191 7.15007 12.4104L6.98481 12.3315C6.98481 12.3315 6.92392 12.3315 6.91522 12.3578L6.60208 13.0326L5.98449 12.7259L6.21065 12.2439C6.21065 12.2439 6.21065 12.1825 6.18455 12.1737L6.01928 12.0949C6.01928 12.0949 5.9584 12.0949 5.9497 12.1212L5.72354 12.6032L5.10595 12.2964L5.4191 11.6216C5.4191 11.6216 5.4191 11.5602 5.393 11.5515L5.22773 11.4726C5.22773 11.4726 5.20164 11.4726 5.18424 11.4726C5.16684 11.4726 5.15814 11.4901 5.15814 11.4989L4.67973 12.5331C4.67973 12.5331 4.67973 12.5944 4.70583 12.6032L6.61947 13.5497H6.62817Z" fill="white"/>
<path d="M7.81984 11.2184C7.81984 11.2184 7.83724 11.2272 7.84594 11.2272C7.84594 11.2272 7.84594 11.2272 7.85464 11.2272C7.87203 11.2272 7.88073 11.2184 7.88943 11.2009L8.00251 11.0256C8.00251 11.0256 8.01121 10.9643 7.98511 10.9467L6.61077 10.0177L8.95063 9.51813C8.95063 9.51813 8.97673 9.50936 8.98543 9.49184L9.03762 9.40419C9.03762 9.40419 9.04632 9.34284 9.02022 9.32531L7.24575 8.11583C7.24575 8.11583 7.21965 8.10706 7.20226 8.11583C7.18486 8.11583 7.17616 8.12459 7.16746 8.14212L7.05438 8.31741C7.05438 8.31741 7.04569 8.37876 7.07178 8.39629L8.29825 9.2289L6.21934 9.65836C6.21934 9.65836 6.19325 9.66712 6.18455 9.68465L6.01928 9.94758C6.01928 9.94758 6.01058 9.97388 6.01928 9.99141C6.01928 10.0089 6.02798 10.0177 6.04537 10.0265L7.81984 11.2359V11.2184Z" fill="white"/>
<path d="M9.68131 7.23939C9.91616 7.17804 10.1249 7.11669 10.2467 7.24815C10.2728 7.27444 10.2902 7.30074 10.3076 7.34456C10.3511 7.42344 10.3337 7.52861 10.2815 7.59873C10.2728 7.61626 10.2554 7.63378 10.238 7.64255C10.2206 7.66884 10.1945 7.68637 10.1684 7.7039C10.0466 7.79154 9.82048 7.81784 9.67261 7.80031L9.55953 7.78278C9.55953 7.78278 9.51604 7.78278 9.50734 7.80907C9.49864 7.8266 9.50734 7.85289 9.51604 7.87042L9.79439 8.15965C9.79439 8.15965 9.82048 8.17718 9.82918 8.17718H9.85528C10.0205 8.17718 10.2554 8.072 10.3859 7.93177C10.5251 7.78278 10.6207 7.60749 10.6555 7.4322C10.6903 7.23062 10.6294 7.04657 10.499 6.90634C10.2119 6.59959 9.83788 6.71352 9.55083 6.80117C9.30728 6.87128 9.12461 6.93263 9.00283 6.80117C8.98544 6.78364 8.96804 6.75735 8.95934 6.73105C8.91585 6.64341 8.93325 6.53824 8.98544 6.46812C8.99414 6.45936 9.00283 6.45059 9.01153 6.43306C9.02893 6.41553 9.04633 6.39801 9.06372 6.38924C9.15941 6.31913 9.33337 6.28407 9.50734 6.3016H9.61172C9.61172 6.3016 9.65521 6.3016 9.66391 6.28407C9.67261 6.26654 9.66391 6.24025 9.65521 6.22272L9.38556 5.94226C9.38556 5.94226 9.35947 5.92473 9.33337 5.92473H9.31598C9.13331 5.95979 8.98544 6.04743 8.84626 6.18766C8.73318 6.3016 8.6549 6.45936 8.6288 6.61712C8.60271 6.75735 8.61141 6.95016 8.77668 7.12545C9.03763 7.39715 9.39426 7.3095 9.67261 7.23062L9.68131 7.23939Z" fill="white"/>
<path d="M11.8385 6.44183C11.8385 6.44183 11.8646 6.46812 11.882 6.46812C11.8907 6.46812 11.8994 6.46812 11.9081 6.45936L12.1777 6.25777C12.1777 6.25777 12.1951 6.24025 12.1951 6.22272C12.1951 6.20519 12.1951 6.19642 12.1864 6.1789L10.9513 4.39972C10.9513 4.39972 10.8991 4.37343 10.873 4.39096L10.6033 4.59254C10.6033 4.59254 10.5859 4.61007 10.5859 4.6276C10.5859 4.64513 10.5859 4.65389 10.5946 4.67142L11.8298 6.45059L11.8385 6.44183Z" fill="white"/>
<path d="M13.439 4.36467C13.6826 4.39096 13.8913 4.41725 13.9696 4.58378C13.9783 4.61007 13.987 4.64513 13.9957 4.68018C14.0131 4.78536 13.9522 4.89053 13.8565 4.94312C13.8565 4.94312 13.8391 4.95188 13.8304 4.95188C13.8043 4.96064 13.7695 4.97817 13.7434 4.98694C13.6043 5.03076 13.3781 4.96941 13.2476 4.89053L13.1433 4.82918C13.1433 4.82918 13.0998 4.82918 13.0824 4.82918C13.065 4.84671 13.0563 4.873 13.0737 4.89053L13.2302 5.25863C13.2302 5.25863 13.2476 5.28493 13.2563 5.28493H13.2737C13.3346 5.31998 13.4216 5.32875 13.5086 5.32875C13.6304 5.32875 13.7608 5.30246 13.8652 5.25863C14.2132 5.10087 14.4915 4.72401 14.3262 4.33837C14.161 3.94397 13.7782 3.91768 13.4738 3.89139C13.2215 3.87386 13.0302 3.85633 12.9606 3.69857C12.9519 3.67228 12.9432 3.64599 12.9432 3.61969C12.9345 3.52328 12.978 3.42688 13.0563 3.38305C13.065 3.38305 13.0824 3.36552 13.0911 3.36552C13.1172 3.35676 13.1346 3.348 13.1607 3.33923C13.2737 3.31294 13.4477 3.33923 13.6043 3.41811L13.7 3.46193C13.7 3.46193 13.7434 3.46193 13.7608 3.45317C13.7782 3.43564 13.7782 3.40935 13.7695 3.39182L13.613 3.03248C13.613 3.03248 13.5869 3.00618 13.5782 2.99742H13.5608C13.3781 2.96236 13.2128 2.97989 13.0302 3.06754C12.891 3.12889 12.7605 3.24282 12.6822 3.38305C12.6127 3.50575 12.5431 3.69857 12.6388 3.92645C12.7866 4.27702 13.152 4.32084 13.4477 4.3559L13.439 4.36467Z" fill="white"/>
<path d="M5.66265 16.0564L4.88849 15.7847C4.90589 15.7146 4.92329 15.6444 4.94068 15.5743L5.03636 15.5305C5.3756 15.3815 5.72354 15.215 5.88881 15.0835C6.01928 14.9783 6.11496 14.8732 6.17585 14.6891C6.19325 14.6365 6.21065 14.5839 6.21065 14.5314C6.21935 14.435 6.19325 14.3123 6.19325 14.3035C6.19325 14.2772 6.16716 14.2597 6.14976 14.2597C6.12366 14.2597 6.10627 14.2684 6.09757 14.2947C6.09757 14.2947 6.06277 14.3824 6.01928 14.435C5.9497 14.5314 5.81922 14.619 5.68874 14.6979C5.53217 14.7943 5.20163 14.9696 4.94068 15.0923C4.88849 14.8469 4.74062 14.6716 4.53186 14.6015C4.34919 14.5401 4.18392 14.5489 4.03605 14.6365C3.87078 14.7329 3.74031 14.9258 3.64462 15.215L3.48805 15.7058C3.48805 15.7058 3.48805 15.7671 3.52285 15.7759L5.53217 16.4771C5.53217 16.4771 5.54087 16.4771 5.54957 16.4771C5.54957 16.4771 5.56697 16.4771 5.57566 16.4771C5.58436 16.4771 5.60176 16.4595 5.60176 16.442L5.70614 16.1177C5.70614 16.1177 5.70614 16.0564 5.67135 16.0476L5.66265 16.0564ZM4.63624 15.697L3.87948 15.4341L3.89688 15.3903C3.94037 15.2851 4.08824 14.9433 4.43618 15.0572C4.54056 15.0923 4.61014 15.1536 4.65364 15.2325C4.70583 15.3377 4.70583 15.4954 4.65364 15.6883L4.63624 15.697Z" fill="white"/>
<path d="M15.7615 11.3236C15.718 11.3762 15.6919 11.4375 15.6919 11.5076C15.6919 11.5778 15.718 11.6391 15.7702 11.6829C15.8137 11.7268 15.8746 11.753 15.9441 11.753C16.0137 11.753 16.0833 11.7268 16.1268 11.6742C16.1703 11.6216 16.1964 11.5602 16.1964 11.4901C16.1964 11.42 16.1703 11.3587 16.1181 11.3061C16.0137 11.2097 15.8572 11.2097 15.7615 11.3148V11.3236Z" fill="white"/>
<path d="M17.4664 19.5008C17.3794 19.1414 17.2924 18.8347 17.2054 18.5455C17.0836 18.1686 16.9792 17.8706 16.8662 17.6077C16.8488 17.5814 16.8227 17.5638 16.7879 17.5726C16.7531 17.5726 16.7357 17.6077 16.7357 17.6427C16.7531 17.9407 16.7879 18.2475 16.8575 18.6419C16.9097 18.9399 16.9705 19.2554 17.0575 19.6147C17.1445 19.9653 17.2315 20.2808 17.3185 20.57C17.4403 20.9469 17.5446 21.2449 17.6577 21.5078C17.6664 21.5341 17.6925 21.5516 17.7186 21.5516C17.7186 21.5516 17.7273 21.5516 17.736 21.5516C17.7708 21.5516 17.7882 21.5166 17.7882 21.4815C17.7708 21.1835 17.736 20.8768 17.6664 20.4824C17.6142 20.1756 17.5533 19.8601 17.4664 19.5095V19.5008Z" fill="white"/>
<path d="M19.1886 22.8488C19.1886 22.8488 19.1278 22.8751 19.1278 22.9101C19.0669 23.4272 19.0234 23.9531 18.9886 24.4614C18.9799 24.5929 18.9712 24.7244 18.9625 24.8558V24.9259C18.9103 25.5307 18.8581 26.1529 18.7624 26.7577C18.6667 27.3537 18.5363 27.9759 18.2492 28.5018C18.1622 28.6508 18.084 28.756 17.997 28.8436C17.9187 28.94 17.8056 29.0189 17.6751 29.0978C17.449 29.2205 17.1619 29.2818 16.8227 29.2731C16.7966 29.2731 16.7618 29.2994 16.7531 29.3257C16.7531 29.3607 16.7618 29.387 16.7966 29.4045C16.9706 29.4659 17.1532 29.4922 17.3272 29.4922C17.4925 29.4922 17.649 29.4659 17.8056 29.4221C18.1187 29.3169 18.4145 29.0803 18.6406 28.7647C18.8233 28.5106 18.9625 28.2126 19.093 27.8269C19.1886 27.5377 19.2582 27.2134 19.3191 26.8453C19.4148 26.2406 19.4496 25.6008 19.4322 24.8733C19.4235 24.2073 19.3626 23.5499 19.2669 22.9189C19.2669 22.8838 19.2321 22.8575 19.1973 22.8575L19.1886 22.8488Z" fill="white"/>
<path d="M19.1973 21.6656C19.1973 21.6656 19.2582 21.6393 19.2582 21.6042C19.3365 21.1222 19.3887 20.6314 19.4496 20.1581L19.4757 19.9215C19.5279 19.4219 19.5888 18.9048 19.641 18.3965C19.7019 17.783 19.7453 17.2746 19.7888 16.7926C19.8323 16.258 19.8671 15.7146 19.8671 15.1712C19.8671 15.1361 19.841 15.1098 19.8149 15.1011C19.7801 15.1011 19.754 15.1186 19.7453 15.1449C19.5888 15.6006 19.4583 16.109 19.3278 16.7225C19.2234 17.2483 19.1452 17.7917 19.0843 18.3351C19.0234 18.9136 18.9973 19.4482 19.006 19.9653C19.006 20.6051 19.0582 21.1222 19.1365 21.6042C19.1365 21.6393 19.1712 21.6568 19.1973 21.6568V21.6656Z" fill="white"/>
<path d="M17.5359 21.8496C17.5359 21.8496 17.4751 21.8496 17.449 21.8672C17.4316 21.8935 17.4316 21.9285 17.449 21.9548C17.6055 22.1213 17.823 22.2703 18.0926 22.3755C18.3188 22.4631 18.5711 22.5245 18.832 22.5508C18.9799 22.5683 19.1277 22.5771 19.2843 22.5771C19.6149 22.5771 19.9541 22.542 20.3194 22.4719C20.8065 22.3755 21.2763 22.2265 21.7286 22.0162C22.2679 21.7707 22.6593 21.5078 22.9724 21.2011C22.9985 21.1748 22.9985 21.1397 22.9811 21.1134C22.9637 21.0871 22.9289 21.0784 22.9028 21.0871C22.5114 21.2799 22.0765 21.4465 21.5807 21.6042C21.1284 21.7532 20.6674 21.8672 20.2324 21.9548C19.7018 22.06 19.2669 22.1126 18.8668 22.1126C18.4928 22.1126 17.997 22.0863 17.5359 21.8496Z" fill="white"/>
<path d="M9.88136 27.5114C9.81177 27.5114 9.71609 27.529 9.60301 27.6078C9.57692 27.6254 9.56822 27.6517 9.57692 27.6867C9.61171 27.8182 9.6726 27.8971 9.72479 27.9496C9.78568 28.011 9.84657 28.0548 9.92485 28.0899C9.98574 28.1162 10.0553 28.1249 10.1336 28.1249C10.1423 28.1249 10.1597 28.1249 10.1684 28.1249C10.2728 28.1249 10.3598 28.0899 10.4555 28.0285C10.4815 28.011 10.4902 27.9847 10.4815 27.9496C10.4468 27.8182 10.3859 27.7393 10.3337 27.6867C10.2728 27.6254 10.2119 27.5815 10.1336 27.5465C10.064 27.5202 9.97704 27.5027 9.89876 27.5114H9.88136Z" fill="white"/>
<path d="M24.0771 38.7386C24.1728 38.4319 24.2598 38.1076 24.3381 37.6957C24.3729 37.5291 24.399 37.3538 24.4251 37.1698V37.1347C24.4512 36.9682 24.4773 36.8192 24.5033 36.6615C24.6338 35.9515 24.8948 35.3556 25.2601 34.891C25.4689 34.6369 25.7037 34.4178 25.9734 34.2425C26.1734 34.1022 26.3996 33.9795 26.704 33.8481L26.7649 34.0935C26.8171 34.2863 26.8606 34.4791 26.9128 34.6719C26.9389 34.7596 26.9911 34.8209 27.0694 34.856C27.2085 34.9173 27.3651 34.8472 27.426 34.6982C27.5391 34.409 27.6522 34.1022 27.7565 33.7692C27.8174 33.8568 27.8696 33.9445 27.9044 34.0234C27.9827 34.2074 28.0262 34.4178 28.0175 34.6193C28.0175 34.8122 27.9653 35.005 27.8696 35.1978C27.7739 35.3994 27.6609 35.5571 27.5304 35.6798C27.4173 35.785 27.2781 35.8814 27.139 35.9866C27.1042 36.0129 27.0694 36.0392 27.0259 36.0655C26.8084 36.2145 26.6258 36.3722 26.4779 36.53L26.4083 36.6001L26.3474 36.679C26.3126 36.7316 26.2691 36.7842 26.2343 36.8367C26.1647 36.9419 26.1039 37.0471 26.0517 37.161C25.9473 37.3801 25.8603 37.5992 25.782 37.8359C25.7385 37.9761 25.7994 38.1251 25.9299 38.1865L26.2517 38.3355C26.2517 38.3355 26.1734 38.4056 26.1299 38.4406L25.6863 38.8438C25.5124 39.0015 25.3297 39.1681 25.1557 39.3346V39.282C25.1557 39.1067 25.1557 38.9227 25.1557 38.7211C25.1557 38.3179 25.1383 37.9498 25.1296 37.5992C25.1296 37.5642 25.1035 37.5379 25.0687 37.5379C25.034 37.5379 25.0079 37.5642 24.9992 37.5992C24.947 37.9498 24.8948 38.3179 24.8513 38.7123C24.8252 38.9139 24.8078 39.098 24.7904 39.2732L24.7382 39.8342C24.7382 39.8867 24.7469 39.9481 24.7817 39.9919C24.8513 40.0883 24.9905 40.0971 25.0774 40.027H25.0861C25.1905 39.9306 25.2949 39.8429 25.408 39.764C25.608 39.5975 25.8168 39.431 26.0256 39.2645L26.4866 38.8788C26.591 38.7912 26.6953 38.7036 26.7997 38.6159L26.9476 38.4932C26.9476 38.4932 27.0085 38.4319 27.0259 38.3968C27.052 38.3267 27.0607 38.2478 27.0259 38.1777C26.9998 38.1076 26.9476 38.055 26.878 38.0199L26.3996 37.7921C26.4431 37.6694 26.4953 37.5467 26.5475 37.4415C26.591 37.3451 26.6432 37.2574 26.6953 37.1698C26.7214 37.126 26.7475 37.0909 26.7736 37.0559L26.8693 36.9419C26.9998 36.8017 27.139 36.6615 27.3303 36.5212L27.4086 36.4599C27.4695 36.416 27.5304 36.3635 27.5913 36.3109C27.7044 36.2145 27.7826 36.1356 27.8609 36.0567C28.0262 35.8727 28.1567 35.6448 28.2437 35.3994C28.3393 35.1364 28.3741 34.8823 28.3567 34.6456C28.3306 34.3739 28.2524 34.1285 28.1219 33.9357C28.0349 33.8043 27.9392 33.6903 27.8261 33.5939C27.9305 33.2609 28.0436 32.9015 28.1567 32.4808C28.1915 32.3581 28.2176 32.2442 28.2524 32.1215V32.104C28.3654 32.0689 28.4524 32.0076 28.5307 31.9199C28.6612 31.7797 28.7308 31.5956 28.7221 31.4116C28.7221 31.2363 28.6525 31.0698 28.5307 30.9383C28.5916 30.6491 28.6438 30.4124 28.6873 30.1846C28.9917 28.607 29.1744 27.0294 29.2353 25.5044C29.2527 25.1626 29.2614 24.8032 29.2614 24.3738C29.5049 24.2511 29.6615 23.9881 29.6528 23.7077C29.6528 23.4272 29.4875 23.1818 29.244 23.0766C29.2179 22.3755 29.1657 21.6305 29.0787 20.7979C29.0091 20.2019 28.9221 19.5797 28.809 18.9486C29.0352 18.8171 29.1744 18.5717 29.1657 18.3C29.157 17.9319 28.8873 17.6427 28.5394 17.6077C28.4263 17.1169 28.3045 16.6348 28.1828 16.1791C28.1828 16.1791 28.1828 16.1615 28.1741 16.1528C28.1567 16.109 28.1219 16.0739 28.0697 16.0564C28.0262 16.0388 27.974 16.0388 27.9305 16.0564C27.5739 16.2229 27.1738 16.3894 26.6605 16.5647C26.3126 16.6874 25.9386 16.8013 25.5298 16.924C25.3384 15.9512 25.0948 14.9345 24.773 13.8127C24.6251 13.2956 24.4599 12.7785 24.2946 12.2701V12.2526C24.1032 11.6917 23.9119 11.1834 23.7118 10.7188C23.5291 10.2982 23.2595 9.746 22.8594 9.27272C22.7463 9.14126 22.6506 9.04485 22.5375 8.95721C22.4331 8.86956 22.2679 8.75563 22.0591 8.72933C21.9547 8.72057 21.8503 8.72933 21.7547 8.76439C21.6677 8.79945 21.5807 8.85203 21.5111 8.92215C21.4328 8.99226 21.3719 9.07991 21.3545 9.11497C21.311 9.17632 21.2762 9.2289 21.2328 9.29025C20.937 9.73724 20.6935 10.2368 20.5282 10.7977C20.3542 11.3849 20.2672 11.9196 20.2672 12.4279C20.2672 12.463 20.2933 12.4893 20.3281 12.498C20.3629 12.498 20.389 12.4805 20.3977 12.4454C20.4934 11.9283 20.6413 11.42 20.85 10.9204C20.9544 10.6663 21.0675 10.4296 21.1893 10.2193C21.3284 9.97388 21.4676 9.76353 21.6155 9.57071C21.6503 9.51813 21.6938 9.47431 21.7373 9.42172C21.7808 9.36913 21.8069 9.34284 21.8416 9.31655C21.9025 9.26396 21.9547 9.24643 22.0156 9.2552C22.0765 9.26396 22.1374 9.30778 22.2331 9.38666C22.3114 9.45678 22.3896 9.53566 22.4766 9.64083C22.6245 9.82488 22.7637 10.0352 22.8854 10.2719C23.0159 10.5173 23.129 10.7451 23.2247 10.973C23.4508 11.4901 23.6509 12.0072 23.8075 12.4542C23.938 12.796 24.0597 13.1378 24.1815 13.4796C24.2424 13.6462 24.2946 13.8039 24.3555 13.9704L24.5555 14.5401C24.8339 15.3377 25.1209 16.1615 25.4254 16.9679C25.408 16.9679 25.3906 16.9766 25.3819 16.9854C25.0166 17.0906 24.6164 17.187 24.1641 17.2921C24.0336 17.073 23.8858 16.8276 23.7379 16.591C23.6335 16.4157 23.5204 16.2492 23.4161 16.0739L23.2769 15.8548C23.1638 15.6795 23.0507 15.5042 22.9376 15.3289L22.5636 14.7592L22.3461 14.4437C22.3461 14.4437 22.3288 14.4174 22.3201 14.4087C22.0156 13.9704 21.5981 13.6199 21.1197 13.392C20.8848 13.2781 20.6326 13.1904 20.3803 13.1291C20.1629 13.0765 19.9802 12.9976 19.8236 12.8749C19.667 12.761 19.5279 12.5944 19.4322 12.4104C19.38 12.314 19.3452 12.2176 19.3191 12.1212C19.3191 12.1036 19.3104 12.0773 19.3017 12.0598L19.2321 11.7706C19.1103 11.2535 18.9886 10.789 18.8494 10.3157C18.8146 10.2105 18.7711 10.079 18.7189 9.93882C18.6667 9.79859 18.6058 9.68465 18.5363 9.57071C18.371 9.29025 18.1709 9.07991 17.9535 8.94844C17.7273 8.80821 17.449 8.72933 17.1445 8.72057C16.8662 8.72057 16.6052 8.77315 16.3617 8.8345C16.3182 8.85203 16.2834 8.8608 16.2399 8.87833C16.1616 8.90462 16.0833 8.93091 16.005 8.96597C15.8745 9.01856 15.7615 9.07991 15.6571 9.14126C15.4309 9.27272 15.2396 9.45678 15.0656 9.66712C14.9873 9.77229 14.909 9.87747 14.8481 9.9914C14.7786 10.1141 14.7264 10.2368 14.6916 10.3595C14.622 10.6049 14.6133 10.8766 14.6655 11.1395C14.6655 11.2622 14.6829 11.3586 14.709 11.4551C14.7351 11.5602 14.7699 11.6654 14.8046 11.7618C14.822 11.7969 14.8394 11.8407 14.8742 11.867C14.8916 11.8845 14.9003 11.8933 14.9177 11.9108L15.2396 12.1562C15.2657 12.3052 15.2918 12.4454 15.3179 12.5857C15.3352 12.6558 15.3439 12.7259 15.3613 12.796L15.3961 12.945C15.4222 13.0589 15.5266 13.1378 15.6484 13.1115L15.9615 13.0502C16.1007 13.2079 16.2399 13.3394 16.4052 13.4533C16.6487 13.6111 16.8749 13.69 17.0923 13.69H17.1445C17.1967 13.69 17.2402 13.6725 17.275 13.6286C17.4229 13.4621 17.5359 13.2605 17.6142 13.0414C17.6838 12.8486 17.7186 12.6383 17.736 12.4016C17.736 12.3666 17.7186 12.3403 17.6838 12.3315C17.649 12.3315 17.6229 12.3403 17.6055 12.3753C17.449 12.8048 17.2837 13.094 17.0749 13.2956C16.9271 13.2693 16.7792 13.1992 16.6313 13.0852C16.4834 12.9801 16.3443 12.8398 16.2312 12.6821L16.2051 12.6558C16.1529 12.5857 16.0746 12.5594 15.9963 12.5769L15.7615 12.6295C15.7528 12.5769 15.7354 12.5331 15.7267 12.4805C15.6919 12.3403 15.6571 12.2 15.6136 12.0686L15.5875 11.9809C15.5788 11.9371 15.544 11.902 15.5092 11.8757L15.2483 11.7355L15.083 11.6479C15.083 11.6479 15.083 11.6479 15.0743 11.6479C15.0743 11.6479 15.0656 11.6391 15.0569 11.6391L14.9177 11.3849C14.8829 11.3236 14.8568 11.2535 14.8307 11.1921C15.0221 11.1571 15.2222 11.1132 15.4309 11.0519C15.544 11.0256 15.6571 10.9905 15.7702 10.9643H15.7963C15.8398 10.9467 15.8745 10.938 15.918 10.9292C15.9615 10.9292 16.0137 10.9117 16.0659 10.9117C16.2747 10.9117 16.4573 10.9555 16.6139 11.0431C16.7009 11.087 16.7705 11.1483 16.8575 11.2184H16.8662C16.9097 11.2622 16.9618 11.2798 17.0227 11.2798C17.0575 11.2798 17.0923 11.271 17.1184 11.2622L17.4229 11.1045L17.5098 11.0519L17.6925 11.5339C17.6925 11.5339 17.736 11.6041 17.7621 11.6303C17.823 11.6742 17.8839 11.718 17.9448 11.753C18.2753 11.9809 18.5537 12.1562 18.8233 12.314C18.8581 12.4367 18.9103 12.5594 18.9712 12.6821C19.1103 12.945 19.3017 13.1641 19.5279 13.3306C19.5714 13.3569 19.6149 13.392 19.6583 13.4183C19.6583 13.4183 19.6583 13.427 19.6496 13.4358V13.4621C19.5627 13.7513 19.4844 14.0493 19.3191 14.2772C19.1364 14.5489 18.8581 14.6365 18.6493 14.6541C18.6145 14.6541 18.571 14.6628 18.5189 14.6628C18.4928 14.6628 18.4667 14.6628 18.4406 14.6628H18.371C18.3188 14.6628 18.2753 14.6628 18.2231 14.6628C18.0926 14.6628 17.9796 14.619 17.8752 14.5664C17.6664 14.4525 17.5185 14.2334 17.4664 13.9967C17.4664 13.9704 17.449 13.9441 17.4403 13.9266C17.3707 13.7952 17.188 13.7689 17.0749 13.8302C16.7705 14.0055 16.5182 14.1545 16.266 14.3298C15.9354 14.5489 15.7006 14.7417 15.4744 14.9608C15.3526 15.0835 15.2222 15.215 15.1265 15.4253C15.1004 15.4692 15.0917 15.5042 15.083 15.5305C15.083 15.5393 15.083 15.5568 15.0743 15.5656L15.0569 15.6094C15.0569 15.6094 15.0395 15.6707 15.0308 15.697C15.0308 15.7233 15.0134 15.7496 15.0047 15.7847C14.9873 15.8373 14.9786 15.8986 14.9612 15.9512C14.8916 16.2404 14.8481 16.5472 14.7959 16.9416C14.7525 17.3272 14.7264 17.6427 14.709 17.9232C14.709 17.9495 14.709 17.967 14.709 17.9933C14.3349 17.4937 13.9783 16.9153 13.613 16.1878C13.265 15.4954 12.9606 14.7242 12.7083 13.9091C12.6996 13.874 12.6822 13.839 12.6735 13.7952C12.6561 13.7338 12.6301 13.6724 12.6127 13.6111L12.5344 13.3131C12.517 13.2605 12.4996 13.1992 12.4909 13.1466C12.4561 13.0064 12.4126 12.8661 12.3865 12.7171L12.2473 12.1124V12.0423C12.2038 11.8582 12.169 11.6742 12.1342 11.4989L12.0734 11.2009C12.0647 11.1395 12.0734 11.0782 12.0995 11.0081C12.1255 10.9467 12.1603 10.8941 12.2125 10.8678C12.2299 10.8503 12.256 10.8416 12.2908 10.8416H12.4213C12.604 10.824 12.7953 10.8416 13.0041 10.8678C13.1694 10.8941 13.3346 10.938 13.5086 10.9818C13.5347 11.3324 13.6043 11.6917 13.726 12.0423C13.9261 12.6032 14.248 13.0677 14.6394 13.3745C14.6655 13.392 14.709 13.392 14.7264 13.3745C14.7525 13.3482 14.7525 13.3131 14.7264 13.2868C14.4045 12.9275 14.1697 12.463 14.0479 11.9459C13.9261 11.4463 13.9 10.938 13.9783 10.4647L14.0131 10.2894C14.0131 10.2894 14.0305 10.2193 14.0392 10.1755C14.0392 10.1492 14.0566 10.1316 14.0566 10.1053C14.074 10.0265 14.1088 9.94758 14.1349 9.85994C14.1436 9.82488 14.161 9.79859 14.1697 9.76353C14.1784 9.72847 14.1958 9.70218 14.2132 9.66712C14.2219 9.64959 14.2306 9.6233 14.2393 9.60577C14.248 9.58824 14.2566 9.56195 14.274 9.54442C14.2914 9.50936 14.3088 9.47431 14.3262 9.44801C14.3436 9.42172 14.3523 9.39543 14.3697 9.3779C14.4219 9.29902 14.4654 9.22014 14.5263 9.15002C14.6481 8.9835 14.7959 8.82574 15.0047 8.64169C15.0395 8.61539 15.0743 8.5891 15.1091 8.56281C15.17 8.51899 15.2309 8.4664 15.2918 8.43134L15.4396 8.3437L15.6049 8.26482C16.4573 7.85289 17.4924 7.90548 18.3014 8.41381C18.3449 8.44011 18.3884 8.4664 18.4319 8.50146H18.4493C18.4493 8.50146 18.4841 8.53652 18.5015 8.55404C18.5363 8.57157 18.5624 8.59787 18.5884 8.6154L18.7537 8.76439C18.7537 8.76439 18.7798 8.79068 18.7885 8.79945L18.9799 8.99226L19.1538 9.21137L19.3104 9.44801C19.5627 9.85994 19.7192 10.3595 19.7714 10.8854C19.7714 10.9204 19.8062 10.9467 19.841 10.9467C19.8758 10.9467 19.9019 10.9204 19.9106 10.8854C19.9541 10.3507 19.8584 9.78982 19.6149 9.28149C19.3539 8.75563 18.9886 8.31741 18.5537 8.01942C17.6403 7.36209 16.3878 7.25691 15.37 7.74772C14.3436 8.221 13.613 9.27272 13.5086 10.4121C13.4912 10.5436 13.4912 10.6838 13.4912 10.824C13.3346 10.7451 13.1954 10.6838 13.0476 10.64C12.8562 10.5699 12.6474 10.526 12.4213 10.4997C12.3952 10.4997 12.3691 10.4997 12.343 10.4997H12.2995C12.2995 10.4997 12.2734 10.4997 12.256 10.4997H12.2386C12.1603 10.4997 12.0821 10.5173 12.0212 10.5523C11.8907 10.6049 11.7863 10.7188 11.708 10.8503C11.6384 10.9818 11.6036 11.122 11.6123 11.271C11.6123 11.3499 11.6297 11.4112 11.6384 11.4814C11.6384 11.5164 11.6384 11.5515 11.6471 11.5953V11.6479C11.6732 11.8407 11.6993 12.0335 11.7254 12.2263L11.8385 12.8486C11.8646 12.9976 11.8994 13.1466 11.9342 13.2868C11.9516 13.3482 11.969 13.4095 11.9777 13.4709L12.056 13.7776C12.0734 13.8477 12.0995 13.9179 12.1168 13.9792C12.1255 14.0143 12.1342 14.0493 12.1516 14.0844C12.4126 14.9258 12.7605 15.7146 13.1867 16.4245C13.6565 17.2133 14.1436 17.8092 14.6742 18.2562C14.6655 18.4403 14.6568 18.6769 14.6481 18.9136C14.6394 19.4044 14.6481 19.9039 14.6742 20.386C14.6307 20.3159 14.5872 20.2457 14.535 20.1669C14.248 19.7199 13.9348 19.2817 13.7 18.9574C13.4303 18.5893 13.1346 18.2212 12.7953 17.8092C12.7344 17.7304 12.6388 17.7041 12.5431 17.7216C12.5083 17.634 12.4735 17.5463 12.4387 17.4587C12.4126 17.4061 12.3952 17.3623 12.3778 17.3097C12.3343 17.222 12.2995 17.1256 12.256 17.038C12.2299 16.9854 12.2125 16.9416 12.1864 16.889C12.1429 16.8013 12.0995 16.7049 12.056 16.6173C11.9951 16.4858 11.9255 16.3544 11.8646 16.2317V16.2141C11.8124 16.1352 11.7341 16.0827 11.6471 16.0827H11.621C11.3688 16.0827 11.0817 16.0914 10.7686 16.109C10.5859 15.4779 10.3946 14.8556 10.1945 14.2509C10.0205 13.7426 9.79438 13.0677 9.51603 12.4016C9.49863 12.3666 9.47254 12.349 9.43774 12.3666C9.40295 12.3753 9.38555 12.4104 9.39425 12.4454C9.52473 13.1554 9.69 13.8477 9.82047 14.3736C9.95965 14.9433 10.1249 15.5393 10.2989 16.1352C10.1771 16.1528 10.0814 16.2492 10.064 16.3806C10.0292 16.6611 9.99444 16.9065 9.96835 17.1344C9.96835 17.1957 9.96835 17.2571 9.99444 17.3009C10.0814 17.4674 10.1771 17.6427 10.2815 17.818C10.3772 17.9845 10.4729 18.1598 10.5772 18.3263L10.5946 18.3526C10.5946 18.3526 10.6642 18.4228 10.7077 18.4315L10.9426 18.4841C11.6993 21.0433 12.4996 23.734 13.0911 25.6797C13.7174 27.7305 14.2132 29.3081 14.6916 30.8068C14.709 30.8507 14.7525 30.8857 14.7959 30.8857C14.8046 30.8857 14.822 30.8857 14.8307 30.8857C14.8742 30.8682 14.909 30.8244 14.909 30.7805V29.5272C14.909 29.5272 14.8829 29.4834 14.8742 29.4747C14.8655 29.4659 14.8307 29.4484 14.822 29.4484C14.822 29.4484 14.8046 29.4484 14.7959 29.4484L14.5785 29.536C14.2566 28.344 13.9 27.082 13.4738 25.5745C12.9171 23.6025 11.6645 19.3342 11.4297 18.5805C11.4471 18.5805 11.4645 18.5805 11.4819 18.5805C11.5254 18.5805 11.6036 18.598 11.6384 18.6068C11.8472 19.4745 12.0647 20.3597 12.3604 21.2274C12.4909 21.6218 12.6474 22.0863 12.8388 22.5332C13.0128 22.9364 13.2041 23.3659 13.4912 23.7778L13.5434 23.8479C13.6652 24.0232 13.7956 24.2073 13.9609 24.3562C14.0653 24.4527 14.161 24.5315 14.2653 24.5929C14.4045 24.6805 14.5263 24.7243 14.6568 24.7419C14.7264 24.7506 14.8046 24.7506 14.8916 24.7419C14.9525 24.7331 15.0134 24.7156 15.083 24.6981C15.1961 24.663 15.3179 24.6104 15.4309 24.5403C15.6223 24.4264 15.805 24.2774 15.9876 24.0758C16.2921 23.734 16.5443 23.3396 16.7444 22.8926C16.8314 22.6998 16.8923 22.4807 16.9445 22.209C16.9879 21.9811 17.014 21.7532 17.0314 21.5166C17.0314 21.4815 17.0053 21.4465 16.9705 21.4465C16.9358 21.4465 16.901 21.4728 16.901 21.5078C16.8662 21.7357 16.8227 21.9548 16.7705 22.1739C16.7183 22.358 16.6574 22.5858 16.5443 22.7874C16.3095 23.1906 16.0485 23.5412 15.7441 23.8216C15.5788 23.9794 15.4048 24.1021 15.2396 24.181C15.1526 24.2248 15.0569 24.2598 14.9699 24.2861C14.9177 24.2949 14.8742 24.3037 14.8394 24.3124C14.8046 24.3124 14.7699 24.3124 14.7351 24.3124C14.6046 24.2861 14.4567 24.1897 14.2914 24.0144C14.1697 23.8917 14.074 23.734 13.9696 23.585L13.9087 23.4886C13.6652 23.1117 13.4912 22.7085 13.3433 22.3317C13.1694 21.8847 13.0215 21.464 12.8997 21.0608C12.6388 20.2282 12.4126 19.3605 12.2212 18.6068C12.2821 18.563 12.343 18.5192 12.4039 18.4841C12.4648 18.4403 12.5257 18.4052 12.5953 18.3526C12.8214 18.6156 13.065 18.9048 13.3694 19.2729C13.6739 19.641 13.9696 20.0179 14.248 20.4123C14.4045 20.6226 14.535 20.8154 14.6568 20.9995C14.7612 21.166 14.9003 21.3851 15.0047 21.613C15.1004 21.8409 15.1787 22.0424 15.1091 22.2177C15.0743 22.2966 15.0047 22.3755 14.909 22.4544C14.8307 22.5157 14.7438 22.5683 14.6133 22.6297C14.5785 22.6472 14.5698 22.6822 14.5785 22.7173C14.5872 22.7524 14.6307 22.7699 14.6568 22.7611C14.7525 22.7261 14.8829 22.6822 14.996 22.6121C15.1352 22.5332 15.2309 22.4368 15.2918 22.3229C15.3613 22.2002 15.3787 22.0512 15.3613 21.8934C15.3439 21.7795 15.3179 21.6568 15.2657 21.5078C15.17 21.2537 15.0569 21.0082 14.8916 20.719L15.0743 18.9661L15.1004 18.712C15.1265 18.4753 15.1526 18.2387 15.1874 18.0021C15.2222 17.7216 15.2744 17.3798 15.3266 17.0467C15.3787 16.7137 15.4396 16.3982 15.5092 16.1177C15.5179 16.0739 15.5353 16.0213 15.544 15.9775C15.544 15.9512 15.5614 15.9249 15.5701 15.8986C15.5701 15.8723 15.5875 15.8548 15.5875 15.8373C15.5875 15.8197 15.5962 15.811 15.5962 15.8022C15.5962 15.7934 15.5962 15.7847 15.6049 15.7671C15.6049 15.7496 15.6136 15.7321 15.6223 15.7233C15.6223 15.7233 15.6223 15.7146 15.631 15.7058C15.6397 15.6707 15.6745 15.6269 15.7093 15.5831L15.7528 15.5305C15.7528 15.5305 15.8224 15.4516 15.8572 15.4166C16.0659 15.2062 16.3269 15.0134 16.5617 14.8469C16.7531 14.7066 16.9271 14.5927 17.0923 14.4875C17.1271 14.5577 17.1706 14.619 17.2228 14.6804C17.3359 14.8293 17.4924 14.9521 17.6751 15.0309C17.8404 15.1098 18.0231 15.1449 18.2144 15.1449C18.2753 15.1449 18.3362 15.1449 18.3971 15.1361H18.4667C18.4667 15.1361 18.5189 15.1186 18.545 15.1186C18.5971 15.1186 18.658 15.101 18.7102 15.0835C18.8842 15.0397 19.0582 14.9696 19.1973 14.8732C19.3452 14.768 19.467 14.6278 19.5453 14.4612C19.6931 14.1633 19.7366 13.8565 19.7627 13.5147C19.928 13.6023 20.102 13.6637 20.2846 13.69C20.5021 13.7338 20.7196 13.7952 20.9196 13.8916C21.3458 14.0844 21.7112 14.3648 21.9808 14.7066C21.9808 14.7066 21.9808 14.7066 21.9895 14.7154L22.0069 14.7329C22.0069 14.7329 22.0069 14.7505 22.0156 14.7505L22.5027 15.3903C22.5723 15.4779 22.6332 15.5656 22.7028 15.6532C22.8072 15.7934 22.9202 15.9337 23.0333 16.0739C23.0942 16.1528 23.1551 16.2229 23.2073 16.3018C23.3291 16.4508 23.4421 16.6085 23.5639 16.7575C23.7205 16.9503 23.8771 17.1519 24.0336 17.3447C23.8945 17.3798 23.764 17.4061 23.6248 17.4324C23.5465 17.4499 23.4682 17.4674 23.39 17.485L22.7115 17.6164H22.6941C22.6941 17.6164 22.6767 17.6252 22.6767 17.634C22.6767 17.634 22.6767 17.6515 22.668 17.6602C22.668 17.6602 22.668 17.6778 22.668 17.6865L23.7118 21.8934L24.773 26.1442C24.8861 26.5999 24.9992 27.0469 25.1122 27.5027C25.3558 28.458 25.5993 29.4484 25.8516 30.4212L25.9647 30.8594C26.156 31.5956 26.3474 32.3318 26.5388 33.0681C25.869 33.1469 25.2427 33.3748 24.7295 33.7341C24.1554 34.1198 23.6857 34.707 23.4074 35.3818L23.3117 35.6273C23.2856 35.6886 23.2682 35.7412 23.2595 35.8025C23.2595 35.8288 23.2421 35.8551 23.2334 35.8902L23.2073 35.9778C23.1899 36.0392 23.1725 36.0918 23.1638 36.1531L23.1116 36.3985C23.042 36.7316 22.9637 37.0559 22.8854 37.3714C22.8159 37.6518 22.7202 37.9849 22.5897 38.3004C22.5375 38.4406 22.4679 38.5809 22.3809 38.7386C22.3288 38.835 22.2679 38.9227 22.2157 39.0015C22.0678 38.8788 21.9112 38.7649 21.7808 38.6685C21.8329 38.4056 21.8764 38.1339 21.9199 37.8622C21.9808 37.4853 22.0243 37.1698 22.0678 36.8718C22.1635 36.083 22.207 35.4695 22.2157 34.8998C22.3461 34.4966 22.4331 34.1285 22.494 33.7867C22.5636 33.366 22.5984 32.9804 22.6071 32.6123C22.6245 32.2179 22.6071 31.8235 22.5897 31.4379C22.5723 31.1399 22.5375 30.8331 22.4853 30.5351C22.494 30.5264 22.5114 30.5176 22.5201 30.5089C22.5723 30.465 22.6245 30.4124 22.6767 30.3686C22.8681 30.1758 23.0072 29.9216 23.1029 29.6499C23.2856 29.1065 23.2769 28.5632 23.2508 28.0986C23.2421 27.9234 23.216 27.7393 23.1986 27.5728C23.1986 27.5027 23.1812 27.4325 23.1725 27.3624C23.1464 27.1083 23.0942 26.8716 23.042 26.6438V26.6175C22.9202 26.1004 22.7811 25.6008 22.668 25.1889C22.4157 24.3037 22.1374 23.3834 21.8155 22.3755C21.8068 22.3404 21.7721 22.3229 21.7373 22.3317C21.7025 22.3404 21.6851 22.3755 21.6938 22.4105C21.9025 23.2519 22.1461 24.2511 22.3809 25.2677C22.4853 25.7235 22.5897 26.2143 22.6854 26.6963C22.7289 26.9154 22.7724 27.1696 22.7898 27.3975C22.7898 27.4676 22.7985 27.5377 22.8072 27.6166C22.8159 27.7919 22.8246 27.9584 22.8333 28.1249C22.8507 28.7034 22.7985 29.1328 22.668 29.4834C22.5897 29.6938 22.4766 29.869 22.3461 30.0093C22.3114 30.0443 22.2766 30.0706 22.2331 30.1057C22.2157 30.1144 22.1983 30.132 22.1809 30.1407C22.1548 30.1583 22.1287 30.1846 22.0939 30.2021C22.0069 30.2634 21.9112 30.3248 21.8068 30.3774C21.4589 30.5702 21.0588 30.7367 20.5369 30.9032C20.0324 31.0522 19.5975 31.1574 19.1886 31.2012C18.6928 31.2626 18.2492 31.2538 17.8491 31.1837C17.3968 31.1048 16.9792 30.9295 16.6487 30.6841C16.466 30.5527 16.3095 30.3949 16.1703 30.2372C16.092 30.1407 16.0311 30.0531 15.9789 29.9742C15.9267 29.8866 15.8745 29.7902 15.8311 29.685C15.6658 29.2906 15.5962 28.8261 15.6223 28.3616C15.631 28.1337 15.6745 27.9058 15.7441 27.7042C15.7789 27.5991 15.8224 27.4939 15.8659 27.3975C15.8832 27.3624 15.9006 27.3186 15.918 27.2836C15.9528 27.2134 15.9876 27.1346 16.0224 27.0644C16.2312 26.6087 16.4312 26.1529 16.6139 25.7147C17.0575 24.663 17.3968 23.7953 17.7012 22.989C17.7099 22.9539 17.7012 22.9189 17.6664 22.9014C17.6316 22.8838 17.5968 22.9014 17.5794 22.9364L16.2921 25.5657C16.092 25.9864 15.8659 26.4334 15.6397 26.8716C15.6049 26.9417 15.5701 27.0119 15.5266 27.082L15.4657 27.1871C15.4048 27.3011 15.3439 27.4238 15.3005 27.5552C15.2135 27.8007 15.1526 28.0636 15.1352 28.3353C15.083 28.8699 15.1613 29.4045 15.3439 29.8953C15.3961 30.0268 15.4483 30.1495 15.5179 30.2634C15.5788 30.3686 15.6484 30.4738 15.7441 30.5965C15.8224 30.6929 15.9006 30.7805 15.9789 30.8594C15.918 31.0961 15.8745 31.3502 15.8485 31.6044C15.805 31.9725 15.7876 32.2968 15.7963 32.6211C15.7963 33.0067 15.8311 33.3397 15.8745 33.6377C15.918 33.9795 16.005 34.3126 16.0746 34.5931C16.0485 34.9524 16.0485 35.2942 16.0572 35.5834C16.0572 35.8902 16.0746 36.2232 16.092 36.6001C16.1094 36.9594 16.1442 37.31 16.1703 37.608C16.1964 37.8446 16.2225 38.09 16.2573 38.4056C16.0398 38.502 15.8485 38.5984 15.6745 38.686C15.4222 38.2916 15.1613 37.8709 14.9264 37.4502C14.6568 36.9682 14.4306 36.5125 14.248 36.0655L14.2219 35.9954C14.3784 35.8551 14.5524 35.6974 14.7177 35.5133C14.822 35.3906 14.9351 35.2591 15.0221 35.0751C15.0569 34.9875 15.0917 34.8998 15.1178 34.8209C15.1178 34.7946 15.1265 34.7683 15.1352 34.7421C15.1526 34.6895 15.1613 34.6281 15.17 34.5755C15.2135 34.2863 15.2135 33.9883 15.1787 33.6027C15.1526 33.3222 15.1004 33.033 15.0308 32.6824C15.0047 32.551 14.9612 32.3932 14.9264 32.2354L14.8046 31.7885C14.7873 31.7359 14.7525 31.6833 14.7003 31.657C14.5959 31.5956 14.4567 31.6307 14.3958 31.7359L14.1175 32.2091C14.0827 32.2705 14.0392 32.3406 14.0044 32.402C14.0044 32.3844 14.0044 32.3669 14.0131 32.3494L14.074 32.104L14.1088 31.8586C14.1523 31.5168 14.1697 31.1837 14.1436 30.8507C14.1349 30.7104 14.1175 30.5264 14.0827 30.3511C14.0479 30.1495 14.0218 30.0005 13.9783 29.8428C13.9609 29.7814 13.9261 29.7288 13.8739 29.6938C13.7521 29.6061 13.5782 29.6324 13.4825 29.7639L12.8127 30.7104L12.7431 30.8068C12.6561 30.9295 12.5692 31.0435 12.4822 31.1486C12.4126 31.2275 12.343 31.2976 12.2734 31.3765C12.1603 31.1224 12.0299 30.877 11.8994 30.6491C11.7689 30.4212 11.5862 30.132 11.3514 29.8515C11.4471 29.834 11.5428 29.8165 11.6471 29.7989C11.6819 29.7989 11.708 29.7726 11.7254 29.7288C11.795 29.5798 11.8646 29.4308 11.9342 29.2906L11.9864 29.1854C12.0734 29.0014 12.1603 28.8173 12.2386 28.6333C12.2821 28.5456 12.2386 28.4405 12.1603 28.3879L12.0038 28.309C12.0734 28.16 12.1429 28.0022 12.2212 27.8532C12.2734 27.7481 12.3256 27.6341 12.3691 27.529C12.3778 27.5027 12.3865 27.4764 12.3865 27.4501C12.3865 27.3887 12.3778 27.3274 12.3343 27.2748C12.2995 27.2222 12.2386 27.1959 12.1777 27.1871H12.169C11.9081 27.1521 11.6384 27.1258 11.3775 27.0995C11.247 27.082 11.1165 27.0732 10.9861 27.0557C10.5076 26.8716 10.0118 26.6876 9.59432 26.5298C9.1333 26.3633 8.65489 26.188 8.15908 26.0127C8.0634 25.9777 7.95902 26.004 7.88943 26.0741C7.77635 26.188 7.65458 26.3019 7.5415 26.4159L7.45451 26.5035L7.36753 26.3721C7.32404 26.3107 7.28924 26.2406 7.24575 26.1705V26.1442C7.24575 26.1442 7.21096 26.1004 7.20226 26.0828C7.16747 26.0302 7.14137 25.9777 7.11528 25.9163C7.09788 25.8812 7.08048 25.8374 7.06308 25.8024C7.04569 25.7585 7.02829 25.7235 7.0109 25.6797L6.92391 25.4343C6.74124 24.812 6.74124 24.1108 6.91521 23.4009C7.06308 22.8049 7.33273 22.1739 7.74156 21.464C7.89813 21.2011 8.0547 20.9469 8.21997 20.7015L8.43743 21.2449C8.43743 21.2449 8.47222 21.2887 8.49832 21.2887C8.52441 21.2887 8.55051 21.2712 8.55921 21.2449L8.75057 20.719C8.75057 20.719 8.76797 20.6577 8.78537 20.6314C8.81146 20.5525 8.83756 20.4824 8.86365 20.4035C8.95063 20.123 8.99413 19.8952 9.00283 19.6673C9.00283 19.641 8.98543 19.6147 8.95933 19.6059C8.95063 19.6059 8.94194 19.6059 8.93324 19.6059C8.92454 19.6059 8.90714 19.6059 8.89844 19.6147C8.5853 19.8251 8.31565 20.0967 8.0634 20.3509C7.79375 20.6401 7.55889 20.9294 7.35883 21.2186C6.88042 21.8934 6.54988 22.5858 6.37591 23.2782C6.28023 23.6814 6.23674 24.0758 6.25414 24.4527C6.27153 24.8646 6.34982 25.2502 6.49769 25.6096C6.62817 25.9426 6.82823 26.2669 7.10658 26.5999L7.23705 26.7402L6.82823 27.1433C6.82823 27.1433 6.81083 27.1696 6.80213 27.1784C6.76734 27.231 6.74994 27.3011 6.75864 27.3624C6.76734 27.4238 6.80213 27.4851 6.85432 27.5202L7.68067 28.1162C7.74156 28.3178 7.80245 28.493 7.87204 28.6508C7.91553 28.756 7.95902 28.8611 8.01121 28.9576C8.046 29.0189 8.0721 29.0715 8.10689 29.1153C8.15038 29.1767 8.21127 29.2292 8.27216 29.2643C8.47222 29.3782 8.67229 29.4396 8.86365 29.4922H8.88105C8.88105 29.4922 8.92454 29.5097 8.94194 29.5185C8.95933 29.8515 8.98543 30.1846 9.02022 30.5089C9.03762 30.6754 9.05502 30.8331 9.06371 30.9997C9.06371 31.061 9.06371 31.1224 9.07241 31.1749C9.07241 31.21 9.07241 31.2714 9.06371 31.3327C9.05502 31.4466 9.02892 31.5606 9.00283 31.6745C8.96803 31.8147 8.95064 31.955 8.93324 32.0777C8.93324 32.0952 8.93324 32.1127 8.91584 32.139L8.45483 32.0251L7.84594 31.8761C7.77635 31.8586 7.70677 31.8761 7.64588 31.9111L7.14137 32.253C7.14137 32.253 7.12397 32.2617 7.12397 32.2705C7.03699 32.3318 6.9674 32.4107 6.89782 32.4984C6.84563 32.5772 6.77604 32.6824 6.74124 32.8402C6.74124 32.8577 6.74124 32.8752 6.74994 32.8928C6.75864 32.9103 6.77604 32.9191 6.79343 32.9191C6.91521 32.9366 7.01959 32.9191 7.09788 32.9015V32.9191C7.13267 33.0505 7.15877 33.1732 7.19356 33.3047C7.19356 33.3047 7.17616 33.3047 7.16747 33.3222C7.09788 33.366 7.04569 33.4274 7.0022 33.4975C6.95001 33.5852 6.92391 33.6816 6.91521 33.7867C6.91521 33.8218 6.93261 33.8481 6.9587 33.8568C7.08918 33.9007 7.18486 33.9007 7.25445 33.8831C7.28054 33.8831 7.29794 33.8744 7.32404 33.8656C7.36753 34.0584 7.41102 34.2512 7.46321 34.4441C7.46321 34.4441 7.46321 34.4616 7.46321 34.4704C7.5154 34.6194 7.67197 34.6982 7.81984 34.6456L8.46352 34.409C8.49832 34.6369 8.53311 34.856 8.5766 35.0839C8.62879 35.3994 8.68968 35.7412 8.77667 36.1005C8.82016 36.2671 8.85495 36.4423 8.92454 36.6176C8.98543 36.7754 9.05502 36.9332 9.1246 37.0821V37.0997C9.28117 37.424 9.42905 37.7307 9.57692 38.0199C9.60301 38.0813 9.6552 38.1076 9.70739 38.1076C9.73349 38.1076 9.75089 38.1076 9.76828 38.09C9.97704 37.9849 10.1684 37.8885 10.3511 37.7921C10.5337 37.6957 10.7338 37.5905 10.9252 37.4853C10.9513 37.4678 10.9687 37.4327 10.9513 37.3977C10.9339 37.3626 10.8991 37.3451 10.873 37.3626C10.6642 37.4327 10.4555 37.5116 10.2554 37.5817C10.0988 37.6343 9.94225 37.6957 9.78568 37.757L9.75089 37.6606C9.6639 37.424 9.56822 37.1873 9.48124 36.9507C9.42035 36.7842 9.36816 36.6264 9.32467 36.4774C9.28117 36.3284 9.24638 36.1619 9.22028 36.0129C9.19419 35.8464 9.16809 35.6711 9.142 35.5133L9.07241 35.0137C9.03762 34.7771 9.01152 34.5405 8.97673 34.3126L8.94194 34.0146C8.94194 34.0146 8.94194 33.9795 8.93324 33.962C8.88105 33.813 8.73318 33.7341 8.5853 33.7867L7.92422 34.0146C7.81984 33.5676 7.69807 33.1031 7.58499 32.6211L7.83724 32.437L8.34175 32.5334L8.86365 32.6298C8.94194 32.7525 9.02892 32.884 9.10721 33.0067C9.1507 33.0768 9.20289 33.1557 9.24638 33.2258C9.37686 33.4362 9.51603 33.6553 9.6726 33.9182C9.83787 34.1987 9.95965 34.4178 10.0553 34.6281C10.0814 34.6895 10.1075 34.7508 10.1249 34.8034C10.1336 34.8385 10.151 34.8823 10.1597 34.9173C10.1597 34.9436 10.1771 34.9699 10.1858 34.9962L10.3076 35.3906C10.3076 35.3906 10.3511 35.4432 10.3859 35.4344C10.4207 35.4344 10.4381 35.3906 10.4381 35.3556L10.3685 34.891C10.3685 34.8385 10.3511 34.7946 10.3424 34.7421C10.3337 34.6807 10.3076 34.6018 10.2902 34.5317C10.2032 34.26 10.0901 34.0058 9.97704 33.7517C9.85527 33.4887 9.72479 33.2346 9.60301 33.0155C9.52473 32.8577 9.43774 32.7087 9.35946 32.5772C9.38555 32.5159 9.40295 32.4545 9.42905 32.402C9.44644 32.3406 9.47254 32.2617 9.48993 32.1478C9.48993 32.0339 9.50733 31.9287 9.53343 31.7885C9.55082 31.6745 9.57692 31.5255 9.57692 31.3678C9.57692 31.2889 9.57692 31.2188 9.56822 31.1399C9.55952 31.0698 9.55082 30.9997 9.53343 30.9295C9.42905 30.465 9.29857 30.018 9.1246 29.5623C9.25508 29.5974 9.37686 29.6236 9.49863 29.6499C9.53343 29.6499 9.56822 29.6324 9.57692 29.5974C9.58562 29.5623 9.57692 29.5272 9.53343 29.5185C9.32467 29.4396 9.142 29.3607 8.95933 29.2818C8.86365 29.238 8.77667 29.1942 8.68098 29.1504C8.5766 29.0978 8.49832 29.054 8.43743 29.0014C8.40264 28.9751 8.39394 28.9576 8.37654 28.9313C8.35914 28.8962 8.34175 28.8611 8.32435 28.8086C8.28956 28.7209 8.25476 28.6245 8.22867 28.5281C8.17648 28.344 8.12429 28.1425 8.0721 27.9321C8.0634 27.8883 8.0373 27.8445 8.00251 27.8182L7.39362 27.3098L7.62848 27.0907L7.81115 27.2222C7.86334 27.2573 7.91553 27.2923 7.95902 27.3274C7.98511 27.3449 8.01991 27.3449 8.046 27.3186C8.0721 27.2923 8.0634 27.2573 8.046 27.231L7.86334 27.0206L7.79375 26.9417L7.91553 26.8366C7.99381 26.7665 8.0721 26.6963 8.15038 26.6175C8.6201 26.7927 9.03762 26.9505 9.42035 27.0907C9.88136 27.2573 10.3685 27.4325 10.8556 27.5991H10.8643C10.8643 27.5991 10.8991 27.6166 10.9252 27.6166C11.0643 27.6166 11.2035 27.6341 11.334 27.6429C11.4993 27.6517 11.6558 27.6604 11.8211 27.6692C11.7341 27.8883 11.6471 28.1074 11.5602 28.3353C11.5254 28.4492 11.5688 28.5632 11.6645 28.607L11.8472 28.6859C11.8037 28.8173 11.7515 28.9488 11.708 29.0803L11.6732 29.1767C11.621 29.3169 11.5775 29.4571 11.5254 29.5974C11.2905 29.6762 11.0991 29.7463 10.9252 29.8077C10.8904 29.8165 10.873 29.8515 10.8817 29.8866C10.8817 29.9216 10.9252 29.9392 10.96 29.9392C11.0382 29.9304 11.1165 29.9129 11.2035 29.8953C11.247 30.2722 11.3427 30.6228 11.4297 30.8857C11.5254 31.1837 11.6819 31.6044 11.8124 31.8936C11.7776 31.9374 11.7428 31.9813 11.6993 32.0251C11.6297 32.1127 11.5688 32.2004 11.5167 32.288C11.4645 32.3844 11.4123 32.4896 11.3862 32.5948C11.2818 32.9541 11.2731 33.331 11.334 33.8218C11.334 33.8568 11.3688 33.8831 11.4036 33.8831C11.4384 33.8831 11.4645 33.8568 11.4732 33.8218C11.5167 33.48 11.5688 33.0593 11.7254 32.7262C11.795 32.5685 11.8907 32.4458 12.0299 32.3143C12.1516 32.1916 12.2908 32.0601 12.43 31.9462L12.4822 31.9024C12.6127 31.7885 12.7518 31.6657 12.8823 31.5255C13.0302 31.3765 13.1433 31.2275 13.2563 31.0785L13.2737 31.0522C13.3781 30.9208 13.4738 30.7805 13.5956 30.614C13.613 30.7104 13.6304 30.8156 13.6391 30.912C13.6739 31.2275 13.6913 31.5343 13.6826 31.8323C13.6826 32.1303 13.6304 32.4283 13.5608 32.7438C13.4912 33.0505 13.3694 33.3485 13.2389 33.6202C13.2215 33.6465 13.2389 33.6816 13.2563 33.6991C13.2824 33.7166 13.3172 33.7166 13.3346 33.6991C13.4564 33.5939 13.5869 33.4712 13.7347 33.3135C13.8478 33.1908 13.9522 33.0681 14.0566 32.9453L14.1001 32.8928C14.2045 32.7613 14.3088 32.6298 14.4132 32.4984L14.448 32.4545C14.448 32.4545 14.4567 32.4458 14.4654 32.437C14.4915 32.5597 14.5089 32.6824 14.535 32.8051C14.5872 33.1119 14.622 33.4011 14.6394 33.6728C14.6655 34.0058 14.6568 34.2775 14.622 34.5142C14.622 34.5492 14.6133 34.5931 14.6046 34.6281C14.6046 34.6544 14.5959 34.6807 14.5872 34.6982C14.5698 34.7508 14.5524 34.8034 14.535 34.8472V34.8647C14.4828 34.9612 14.4045 35.0751 14.3262 35.1715C14.1784 35.3468 14.0044 35.5221 13.8304 35.6974L13.6739 35.8551C13.4825 36.0567 13.2824 36.2583 13.1259 36.5125C13.1085 36.5475 13.0824 36.5826 13.0563 36.6264C13.0563 36.6352 13.0476 36.6527 13.0389 36.6615C13.0215 36.6877 13.0128 36.714 13.0041 36.7491V36.7842C13.0041 36.7842 12.9693 36.8455 12.9606 36.8806C12.9606 36.8806 12.9606 36.8806 12.9606 36.8893C12.9519 36.9331 12.9432 36.9682 12.9345 37.012C12.9084 37.1786 12.9171 37.3363 12.9171 37.4941C12.9171 37.6255 12.9345 37.757 12.9432 37.8797C12.9519 38.0462 12.9693 38.2215 12.9693 38.3968C12.9693 38.4319 12.9954 38.4582 13.0302 38.4669C13.065 38.4669 13.0911 38.4494 13.0998 38.4143C13.152 38.1777 13.1781 37.9235 13.2041 37.6869C13.2041 37.6255 13.2128 37.5642 13.2215 37.5028C13.2389 37.3714 13.2563 37.2224 13.2911 37.0821C13.2911 37.0559 13.3085 37.0296 13.3172 37.012L13.3607 36.9156C13.3607 36.9156 13.3781 36.8893 13.3868 36.8718C13.3868 36.863 13.4042 36.8455 13.4129 36.8367C13.4303 36.8104 13.4477 36.7842 13.4651 36.7579C13.5521 36.6439 13.6478 36.5475 13.7434 36.4599C13.9522 36.9244 14.2045 37.3626 14.5176 37.7658C14.822 38.1777 15.1613 38.5195 15.5266 38.8C15.4135 38.8613 15.2918 38.9314 15.1613 39.0191H15.1439C15.0743 39.0717 15.0047 39.1242 14.9351 39.1944C14.8916 39.2294 14.8655 39.2645 14.8307 39.3083C14.7959 39.3521 14.7699 39.3872 14.7438 39.431C14.6481 39.58 14.5698 39.7728 14.5263 39.9744C14.5089 40.0533 14.4915 40.1409 14.4828 40.2461C14.4828 40.2987 14.4741 40.3425 14.4828 40.4038C14.4828 40.4915 14.5089 40.5791 14.5437 40.6493C14.5872 40.7281 14.6394 40.7807 14.6829 40.8158C14.7264 40.8508 14.7699 40.8859 14.8133 40.9122L14.8742 40.9472C14.8742 40.9472 14.9351 40.9735 14.9612 40.9911C15.0134 41.0086 15.0743 41.0261 15.1265 41.0349C15.3439 41.0787 15.5266 41.0612 15.6832 41.0349C15.8485 41.0086 16.0311 40.9735 16.2225 40.8771C16.2747 40.8508 16.3269 40.8158 16.3704 40.7807C16.4138 40.7457 16.4486 40.7018 16.4921 40.658C16.5617 40.5791 16.6052 40.4915 16.6487 40.4301L16.6748 40.3863C16.7096 40.3337 16.7357 40.2811 16.7705 40.2373C16.8053 40.1847 16.8401 40.1497 16.8488 40.1409C16.8488 40.1409 16.8488 40.1409 16.8575 40.1409L17.2576 39.9306C17.3794 39.8605 17.5272 39.7728 17.6838 39.6676C17.7621 39.6151 17.8317 39.5625 17.9013 39.4924C17.9883 39.4135 18.0491 39.2995 18.0839 39.1593C18.1274 38.9928 18.1274 38.835 18.11 38.7036C18.2666 38.6597 18.3884 38.6422 18.5102 38.6334C18.658 38.6159 18.8146 38.6247 19.006 38.6422C19.1712 38.6685 19.3365 38.7036 19.4931 38.7561C19.5975 38.7912 19.7105 38.835 19.8497 38.9051C19.8497 38.9402 19.8323 38.9753 19.8236 39.0103C19.7975 39.1505 19.7714 39.3171 19.7975 39.5099C19.8062 39.6238 19.8323 39.7202 19.8758 39.8079C19.928 39.913 20.0063 40.0007 20.102 40.062H20.1107C20.1803 40.1059 20.2324 40.1322 20.2846 40.1497L20.3455 40.176C20.3455 40.4301 20.3107 40.6668 20.2498 40.8684C20.1716 41.1401 20.0411 41.3942 19.8671 41.6309C19.7801 41.7448 19.6931 41.8587 19.5975 41.9639C19.5018 42.0691 19.4061 42.1655 19.293 42.2707C19.0582 42.481 18.8407 42.6388 18.6058 42.7615C18.1187 43.0244 17.5707 43.1559 17.014 43.1296C16.7705 43.1296 16.5095 43.0858 16.179 43.0156C15.9267 42.9631 15.6571 42.8842 15.3613 42.779C14.3784 42.4109 13.4477 41.736 12.5866 40.7632C11.882 39.9656 11.2035 39.0103 10.4989 37.8446C10.4816 37.8184 10.4468 37.8008 10.412 37.8184C10.3772 37.8359 10.3685 37.8709 10.3772 37.906C10.5772 38.4056 10.8382 38.9314 11.1948 39.5537C11.5428 40.1497 11.882 40.6493 12.2299 41.0787C12.6301 41.5783 13.065 42.0253 13.5347 42.4021C14.0218 42.7878 14.5698 43.1033 15.1613 43.3224C15.4918 43.4451 15.7876 43.524 16.0572 43.5766C16.3443 43.6291 16.6661 43.6817 16.9879 43.6817C16.9879 43.6817 16.9966 43.6817 17.0053 43.6817C17.6577 43.6817 18.3101 43.4977 18.8233 43.1734C18.9103 43.1208 19.006 43.0507 19.1017 42.9806C19.3626 43.1909 19.6757 43.3312 20.0063 43.3837C20.4064 43.4451 20.85 43.3837 21.2415 43.1909C21.5981 43.0244 21.9199 42.7702 22.207 42.4372C22.4331 42.1743 22.6158 41.8763 22.755 41.5695C22.7724 41.5695 22.7985 41.5695 22.8159 41.5695C22.8681 41.5695 22.9289 41.552 22.9811 41.5257C23.0942 41.4819 23.1899 41.4118 23.2595 41.3153C23.2943 41.2715 23.3291 41.2189 23.3465 41.1488C23.3639 41.0962 23.3813 41.0261 23.3813 40.9911C23.4074 40.807 23.3987 40.6493 23.3726 40.4915C23.3726 40.4915 23.3726 40.4827 23.3726 40.474C23.503 40.2636 23.6248 40.0445 23.7466 39.7903C23.9032 39.4573 24.0336 39.1242 24.138 38.7912L24.0771 38.7386ZM18.1274 11.3849C18.1274 11.3849 18.0578 11.3236 18.0144 11.2885L17.8926 10.8766L17.7969 10.5786C17.7969 10.5786 17.7882 10.5523 17.7795 10.5436C17.7186 10.4209 17.5707 10.377 17.4577 10.4472L17.1184 10.6312L16.9705 10.7188C16.8923 10.6575 16.8227 10.6137 16.7531 10.5874C16.5008 10.4647 16.2225 10.4209 15.9615 10.4647C15.8919 10.4734 15.8224 10.491 15.7702 10.5085C15.7093 10.526 15.6484 10.5523 15.6049 10.5786H15.5875C15.4831 10.6312 15.3787 10.6838 15.2744 10.7276C15.083 10.8153 14.909 10.9029 14.7438 10.9993C14.7438 10.8065 14.7786 10.6049 14.8568 10.4209C14.9351 10.228 15.0569 10.044 15.2396 9.85117C15.3961 9.69342 15.5788 9.55319 15.7789 9.44801C15.8745 9.39543 15.9789 9.36037 16.0833 9.31655C16.1529 9.29902 16.2225 9.27273 16.2921 9.2552C16.3356 9.24643 16.3791 9.23767 16.4138 9.22014C16.64 9.17632 16.8575 9.14126 17.0749 9.15879C17.2924 9.17632 17.4838 9.23767 17.649 9.34284C17.7969 9.43925 17.9274 9.58824 18.0491 9.79859C18.1013 9.88623 18.1448 9.9914 18.1883 10.1053C18.2231 10.2018 18.2579 10.3069 18.284 10.4121V10.4384C18.4232 10.9029 18.5363 11.3762 18.6493 11.8582C18.4841 11.7005 18.3101 11.5515 18.1187 11.3849H18.1274ZM12.1603 17.9144C11.9864 18.0284 11.8211 18.1423 11.6558 18.265C11.6297 18.2825 11.6036 18.3088 11.5862 18.3351C11.4993 18.2913 11.4123 18.2562 11.334 18.2212C11.3079 18.2124 11.2731 18.1949 11.247 18.1861C11.1861 18.1598 11.1252 18.1335 11.073 18.1072L10.8991 18.0371C10.8295 17.8706 10.7599 17.7041 10.699 17.5638C10.6294 17.4148 10.5685 17.2571 10.4989 17.1081C10.525 16.9591 10.5424 16.8101 10.5685 16.6611C10.8991 16.6348 11.2035 16.6085 11.508 16.5735C11.5602 16.6611 11.6123 16.74 11.6645 16.8189C11.7167 16.8977 11.7776 16.9854 11.8298 17.0643C11.8559 17.1081 11.8907 17.1519 11.9168 17.1957C11.969 17.2746 12.0299 17.3535 12.0908 17.4411C12.1255 17.485 12.1516 17.5288 12.1864 17.5726C12.2386 17.6427 12.2995 17.7128 12.3517 17.783L12.1516 17.9144H12.1603ZM28.235 31.6044C28.1828 31.657 28.1132 31.692 28.0349 31.692C27.9653 31.692 27.8957 31.6657 27.8348 31.6132C27.7826 31.5606 27.7478 31.4905 27.7478 31.4116C27.7478 31.2538 27.8696 31.1224 28.0262 31.1136C28.0958 31.1136 28.1654 31.1399 28.2176 31.1925C28.2697 31.2451 28.3045 31.3152 28.3045 31.3941C28.3045 31.4729 28.2785 31.543 28.2263 31.5956L28.235 31.6044ZM28.7221 25.443C28.6786 26.2406 28.609 27.0119 28.522 27.7568C28.4263 28.5281 28.3045 29.2994 28.1567 30.0443C28.1219 30.2372 28.0784 30.4387 28.0262 30.6841C28.0262 30.6841 27.974 30.6841 27.9479 30.6841C27.8087 29.983 27.6522 29.238 27.4608 28.3966C27.2172 27.3361 26.9563 26.2844 26.6953 25.2765C26.6692 25.1626 26.6345 25.0486 26.6084 24.9347C26.6084 24.9347 26.6605 24.8821 26.6866 24.8558C26.8171 24.7156 26.8867 24.5315 26.878 24.3475H26.9476C27.1738 24.3037 27.4347 24.2686 27.687 24.2248C27.9479 24.181 28.2002 24.1371 28.4089 24.0933C28.4959 24.2248 28.6264 24.3212 28.7656 24.3738C28.7656 24.7769 28.7482 25.1187 28.7308 25.443H28.7221ZM26.243 23.6551C26.0952 23.138 25.9647 22.656 25.8255 22.1914C25.5646 21.315 25.321 20.5262 25.0861 19.8075C25.147 19.7812 25.2079 19.7374 25.2601 19.6936C25.4602 19.9565 25.6254 20.1669 25.7907 20.3684C25.9212 20.535 26.0604 20.7015 26.1908 20.8593L26.2865 20.9732C26.4257 21.1485 26.5736 21.315 26.7214 21.4815L26.7997 21.5692C27.139 21.9723 27.5043 22.3667 27.8348 22.7436C28.0175 22.9452 28.2089 23.1468 28.3741 23.322C28.3132 23.4185 28.2784 23.5324 28.2698 23.6463C28.061 23.7077 27.8174 23.769 27.5826 23.8479C27.3303 23.918 27.0781 23.9969 26.8606 24.067L26.7997 24.0845C26.704 23.8567 26.4866 23.6902 26.243 23.6639V23.6551ZM26.4431 24.365C26.4431 24.4439 26.417 24.514 26.3648 24.5666C26.3126 24.6192 26.243 24.6542 26.1734 24.6542C26.0952 24.6542 26.0256 24.6279 25.9734 24.5754C25.9212 24.5228 25.8864 24.4527 25.8864 24.3738C25.8864 24.2949 25.9125 24.2248 25.9647 24.1722C26.0169 24.1196 26.0865 24.0845 26.1647 24.0845C26.3126 24.0845 26.4431 24.2072 26.4431 24.365ZM28.9743 23.4097C29.1222 23.4097 29.2527 23.5324 29.2527 23.6902C29.2527 23.8479 29.1309 23.9794 28.983 23.9881C28.9047 23.9881 28.8351 23.9618 28.783 23.9093C28.7308 23.8567 28.696 23.7866 28.696 23.7077C28.696 23.6288 28.7221 23.5587 28.7743 23.5061C28.8264 23.4535 28.896 23.4185 28.9743 23.4185V23.4097ZM28.2784 18.0809C28.3306 18.0284 28.4002 17.9933 28.4785 17.9933C28.6264 17.9933 28.7569 18.116 28.7569 18.2738C28.7569 18.4315 28.6351 18.563 28.4872 18.5717C28.4089 18.5717 28.3393 18.5455 28.2871 18.4929C28.235 18.4403 28.2002 18.3702 28.2002 18.2913C28.2002 18.2124 28.2263 18.1423 28.2784 18.0897V18.0809ZM28.4089 18.9924C28.4959 19.5534 28.5742 20.1493 28.6351 20.8067C28.696 21.5078 28.7395 22.2177 28.7569 22.9101C28.6003 22.7261 28.4176 22.5333 28.2437 22.3404C27.9044 21.9723 27.5478 21.5779 27.1738 21.2011L27.0955 21.1134C26.9476 20.9557 26.791 20.7891 26.6258 20.6401L26.5127 20.535C26.3648 20.386 26.2169 20.237 26.0691 20.0968C25.8777 19.9039 25.6689 19.7111 25.4167 19.4745C25.4515 19.3956 25.4776 19.3167 25.4863 19.2291C25.9995 19.0976 26.4518 18.9837 26.8606 18.861C27.1912 18.7646 27.5217 18.6682 27.8435 18.563C27.8783 18.6506 27.9392 18.7295 28.0001 18.7996C28.1132 18.9048 28.2524 18.9749 28.4002 18.9924H28.4089ZM26.4518 30.8507L26.3039 30.3248C26.043 29.3782 25.782 28.4054 25.5211 27.4764C25.3993 27.0206 25.2688 26.5736 25.147 26.1179L22.7724 17.6778L23.3813 17.5901C23.4595 17.5726 23.5378 17.5638 23.6248 17.5551C23.7727 17.5288 23.9206 17.5113 24.0684 17.485C24.5729 17.3886 25.0166 17.3009 25.4254 17.2045C25.9212 17.0818 26.3648 16.9679 26.7736 16.8452C26.9737 16.7838 27.1999 16.7137 27.4347 16.626C27.6087 16.5647 27.7652 16.5033 27.8957 16.4508C28.0001 16.8977 28.0871 17.2834 28.1654 17.6515C28.0958 17.6865 28.0349 17.7391 27.974 17.7917C27.8522 17.9232 27.7826 18.1072 27.7826 18.2913C27.4521 18.3439 27.1042 18.4052 26.7649 18.4753C26.3474 18.563 25.8951 18.6594 25.3732 18.7733C25.3384 18.7207 25.3036 18.6769 25.2601 18.6331C25.1209 18.5016 24.947 18.4315 24.7643 18.4403C24.3816 18.449 24.0771 18.7821 24.0858 19.1765C24.0945 19.5621 24.4077 19.8776 24.7817 19.8776H24.7991C24.7991 19.8776 24.8339 19.8776 24.8426 19.8776C24.9818 20.6314 25.1557 21.4289 25.3645 22.3229C25.4776 22.7962 25.5906 23.287 25.7211 23.8129C25.695 23.8304 25.6689 23.8567 25.6515 23.883C25.5211 24.0232 25.4515 24.2073 25.4602 24.3913C25.4602 24.5841 25.5385 24.7594 25.6776 24.8909C25.782 24.9873 25.9038 25.0574 26.043 25.0749V25.0925C26.0778 25.2064 26.1039 25.3203 26.1386 25.4343C26.3996 26.4422 26.6866 27.4764 26.9911 28.5281C27.2346 29.3607 27.4608 30.0969 27.687 30.7718C27.4608 30.9032 27.3216 31.1486 27.3303 31.4203C27.3303 31.6745 27.4782 31.9111 27.6957 32.0339C27.6696 32.1215 27.6522 32.2179 27.6261 32.3055C27.4869 32.8139 27.3477 33.2696 27.2172 33.6816C26.965 32.735 26.704 31.7797 26.4518 30.8507ZM25.0774 19.1502C25.0774 19.2291 25.0513 19.2992 24.9992 19.3518C24.947 19.4044 24.8774 19.4394 24.8078 19.4394C24.7382 19.4394 24.6686 19.4131 24.6077 19.3605C24.5555 19.308 24.5207 19.2378 24.5207 19.159C24.5207 19.0801 24.5468 19.01 24.599 18.9574C24.6512 18.9048 24.7208 18.8697 24.7991 18.8697C24.8687 18.8697 24.9383 18.896 24.9905 18.9486C25.0426 19.0012 25.0774 19.0713 25.0774 19.1502ZM17.8926 35.04C17.8752 35.2241 17.8578 35.3819 17.8317 35.5308C17.8056 35.6711 17.7795 35.8201 17.736 36.0041L17.7012 36.1444C17.6316 36.4248 17.5533 36.714 17.5098 37.0033C17.4577 37.3451 17.4316 37.6957 17.4316 38.0462C17.4316 38.055 17.4316 38.0638 17.4316 38.0725C17.4403 38.1777 17.4577 38.2653 17.4751 38.353C17.4838 38.4231 17.5011 38.4932 17.5098 38.5546C17.5359 38.7211 17.5272 38.8438 17.5098 38.9227C17.4924 38.9665 17.4751 38.9928 17.4664 39.0103C17.4316 39.0454 17.3794 39.0804 17.3185 39.1242C17.2141 39.1944 17.0923 39.2645 16.9271 39.3521L16.6226 39.5186L16.4921 39.5888C16.3791 39.6676 16.3182 39.7465 16.266 39.8254V39.8429C16.2138 39.9043 16.179 39.9569 16.1442 40.0095L16.1181 40.0533C16.0833 40.1059 16.0398 40.176 16.005 40.2198C15.9876 40.2461 15.9702 40.2549 15.9615 40.2636C15.9528 40.2724 15.9354 40.2811 15.918 40.2899C15.8311 40.3337 15.7006 40.3688 15.5527 40.3863C15.4135 40.4039 15.2744 40.4039 15.17 40.3863C15.1439 40.3863 15.1265 40.3776 15.1091 40.3688C15.1091 40.3688 15.1004 40.3688 15.0917 40.3688L15.0482 40.3425C15.0482 40.3425 14.9873 40.2987 14.9786 40.2899C14.9786 40.2811 14.9786 40.2636 14.9786 40.2198C14.9786 40.1409 14.996 40.0708 15.0134 40.0095C15.0395 39.8692 15.083 39.7553 15.1526 39.6589C15.2135 39.5625 15.2831 39.4924 15.4135 39.4047C15.544 39.3171 15.6832 39.2382 15.7963 39.1768C16.0659 39.0278 16.3443 38.8876 16.6313 38.7561C16.7357 38.7036 16.7966 38.5896 16.7792 38.4669C16.727 38.0813 16.6835 37.7658 16.6487 37.4765C16.6052 37.126 16.5704 36.8017 16.5443 36.4862C16.5095 36.1181 16.4834 35.7938 16.4747 35.4958C16.4747 35.3468 16.4573 35.1715 16.4573 34.9962C16.4573 34.7946 16.4573 34.6456 16.4573 34.4966C16.4573 34.4704 16.4573 34.4528 16.4486 34.4265C16.353 34.1373 16.266 33.8218 16.2051 33.4887C16.1442 33.1908 16.1007 32.8752 16.0746 32.5247C16.0485 32.2004 16.0485 31.8761 16.0572 31.543C16.0659 31.2976 16.0833 31.0961 16.1094 30.912C16.1703 30.9646 16.2399 31.0172 16.3008 31.0698C16.7009 31.3678 17.188 31.5781 17.7273 31.6745C17.9448 31.7183 18.1709 31.7359 18.4058 31.7446C18.3971 31.8761 18.3884 31.99 18.371 32.104C18.3449 32.3055 18.3275 32.5247 18.284 32.7438C18.2492 32.9454 18.2144 33.1645 18.1622 33.3748C18.1013 33.6202 18.0404 33.8043 17.9622 33.962C17.9535 33.9883 17.9448 34.0146 17.9448 34.0321C17.9622 34.3389 17.9448 34.6632 17.9187 35.0225L17.8926 35.04ZM19.9454 35.189C19.9106 35.5221 19.9019 35.8727 19.928 36.2057L19.9889 37.1961C20.0063 37.4941 20.015 37.8008 20.0063 38.1163L19.9454 38.2741C19.9193 38.3442 19.8932 38.4143 19.8671 38.4844C19.8062 38.3968 19.7279 38.3179 19.6323 38.2478C19.4496 38.1076 19.2321 38.0199 18.9973 37.9849C18.9364 37.9849 18.8842 37.9761 18.8233 37.9761C18.6406 37.9761 18.4667 38.0112 18.3101 38.0813C18.1796 38.1339 18.0665 38.2127 17.9796 38.3092C17.9796 38.2829 17.9709 38.2653 17.9622 38.239C17.9448 38.1602 17.9361 38.09 17.9187 38.0199C17.9187 37.6518 17.9274 37.3451 17.9622 37.0646C17.997 36.7929 18.0491 36.5212 18.11 36.2408L18.1448 36.1005C18.2057 35.8025 18.2492 35.4607 18.2666 35.0663C18.2753 34.7771 18.284 34.4265 18.2405 34.0672C18.3014 33.8919 18.3536 33.6903 18.3971 33.4537C18.4406 33.217 18.4667 32.9892 18.4841 32.7876C18.5102 32.4633 18.5276 32.1215 18.5189 31.7534C18.7363 31.7534 18.9625 31.7359 19.1886 31.7096C19.4148 31.6833 19.6583 31.6395 19.9106 31.5781C19.9106 31.9637 19.9106 32.3669 19.9367 32.7613C19.9628 33.2258 20.015 33.6991 20.0933 34.2162C20.0237 34.5054 19.9715 34.8122 19.9367 35.1803L19.9454 35.189ZM21.8242 42.0253C21.5198 42.2794 21.2328 42.4722 20.9457 42.6037C20.6239 42.7527 20.302 42.8316 19.9802 42.8404C19.7627 42.8404 19.5279 42.8141 19.2582 42.7439C19.5627 42.4722 19.841 42.1392 20.0759 41.7623C20.2498 41.4643 20.3629 41.1664 20.4238 40.8596C20.4586 40.6405 20.4673 40.4126 20.4499 40.176L20.4847 40.1935C20.5804 40.2373 20.6761 40.2811 20.763 40.325C20.8152 40.3513 20.8587 40.3863 20.8761 40.3951C20.8761 40.3951 20.9109 40.4389 20.9283 40.4827C20.9457 40.5178 20.9631 40.5528 20.9805 40.5879C21.024 40.6668 21.0675 40.7632 21.1371 40.8684C21.1632 40.9034 21.198 40.956 21.2589 40.9998C21.2762 41.0086 21.2849 41.0261 21.3023 41.0349L21.3719 41.0787C21.4328 41.1138 21.5024 41.1488 21.5633 41.1839C21.6938 41.2452 21.8155 41.2978 21.9547 41.3504C22.1113 41.403 22.2418 41.438 22.3722 41.4643C22.3896 41.4643 22.407 41.4643 22.4157 41.4731C22.2157 41.6659 22.0156 41.85 21.8155 42.0165L21.8242 42.0253ZM22.7724 40.8508C22.7724 40.8508 22.7724 40.8771 22.7724 40.8859C22.7724 40.8859 22.755 40.9122 22.7289 40.9209C22.7289 40.9209 22.7115 40.9209 22.7028 40.9209C22.7028 40.9209 22.6854 40.9209 22.6767 40.9209H22.6593C22.6071 40.9209 22.5549 40.9122 22.5027 40.8947C22.3983 40.8771 22.2853 40.8421 22.1548 40.7982C22.0417 40.7544 21.9286 40.7106 21.8155 40.658C21.7634 40.6317 21.7112 40.6054 21.659 40.5791C21.6416 40.5616 21.6242 40.5616 21.6155 40.5528L21.5981 40.5266C21.5633 40.4827 21.5285 40.4126 21.4937 40.3337C21.4763 40.2899 21.4502 40.2461 21.4241 40.2023L21.4067 40.176C21.3719 40.1146 21.3371 40.0445 21.2502 39.9656C21.1719 39.8955 21.111 39.8605 21.0501 39.8254H21.0414C20.9109 39.7465 20.7978 39.6939 20.6587 39.6413L20.476 39.5625C20.4151 39.5362 20.3629 39.5099 20.3368 39.4924H20.3194C20.3194 39.4924 20.2933 39.4661 20.2846 39.4485C20.2672 39.4222 20.2585 39.3872 20.2585 39.3434C20.2498 39.2557 20.2585 39.1418 20.2759 39.0015C20.2933 38.8876 20.3281 38.7561 20.3629 38.6247C20.3803 38.5633 20.4064 38.502 20.4238 38.4406L20.5021 38.239C20.5021 38.239 20.5195 38.1865 20.5195 38.1514C20.5195 37.8534 20.5021 37.5291 20.4673 37.1435L20.3716 36.1619C20.3368 35.7938 20.3281 35.4958 20.3542 35.2066C20.3716 34.856 20.4064 34.5405 20.4673 34.2512V34.2425C20.4673 34.2162 20.4673 34.1987 20.4673 34.1724C20.4151 33.9445 20.3716 33.6991 20.3281 33.4537C20.2846 33.1995 20.2498 32.9366 20.2237 32.7262C20.1889 32.4896 20.1629 32.2442 20.1455 31.99C20.1281 31.841 20.1194 31.692 20.1107 31.5255C20.302 31.4817 20.4847 31.4203 20.6674 31.3678C21.1893 31.2012 21.6329 31.0084 22.033 30.7718C22.1374 30.7104 22.2331 30.6491 22.3288 30.579C22.3461 30.8156 22.3461 31.0785 22.3461 31.3765C22.3461 31.7534 22.3288 32.139 22.2853 32.5247C22.2592 32.8489 22.1983 33.2083 22.1113 33.6465C22.0417 33.9795 21.9373 34.3301 21.7895 34.7158C21.7895 34.7333 21.7808 34.7596 21.7721 34.7859C21.746 35.3556 21.6851 35.9691 21.5633 36.7316C21.5024 37.1172 21.4502 37.424 21.398 37.7044C21.3284 38.0638 21.2675 38.3793 21.2067 38.6685C21.1806 38.7737 21.2241 38.8788 21.311 38.949C21.5285 39.1155 21.7373 39.282 21.9286 39.4398C21.9808 39.4836 22.0243 39.5186 22.0678 39.5625C22.1113 39.6063 22.1461 39.6413 22.1896 39.6852C22.2679 39.7728 22.3548 39.8692 22.4331 39.9744C22.5201 40.0796 22.5897 40.1847 22.6506 40.2724C22.6854 40.3337 22.7115 40.3776 22.7376 40.4214C22.755 40.4652 22.7637 40.4915 22.7811 40.5441C22.7985 40.6317 22.7985 40.7369 22.7811 40.8508H22.7724ZM23.3726 39.6063C23.3204 39.7816 23.2682 39.9481 23.1986 40.1322C23.1638 40.0708 23.129 40.0182 23.1029 39.9744C23.0246 39.8605 22.9463 39.7465 22.8507 39.6326C22.755 39.5186 22.668 39.4135 22.581 39.3171C22.5375 39.2732 22.4766 39.2119 22.4157 39.1593C22.3809 39.133 22.3548 39.1067 22.3201 39.0804C22.407 39.0015 22.4766 38.9227 22.5462 38.8526C22.6419 38.7386 22.7463 38.6071 22.8507 38.4231C23.0159 38.1426 23.1638 37.8271 23.2856 37.4765C23.3987 37.1698 23.4856 36.863 23.59 36.5037L23.6509 36.2583C23.6683 36.2057 23.677 36.1619 23.6944 36.1093C23.6944 36.083 23.7118 36.0567 23.7205 36.0304C23.7292 36.0041 23.7379 35.9691 23.7466 35.9428C23.764 35.899 23.7727 35.8464 23.7901 35.8025L23.8771 35.5834C24.1119 35.0137 24.486 34.4966 24.9557 34.0935C25.3558 33.7604 25.8603 33.4712 26.5301 33.1995C26.5649 33.331 26.5997 33.4625 26.6345 33.5939L26.6605 33.6816C26.3648 33.7341 26.0778 33.8218 25.8168 33.9445C25.4776 34.1022 25.1731 34.3214 24.9296 34.5843C24.686 34.8385 24.4686 35.1452 24.3033 35.5046C24.1554 35.8201 24.0423 36.1794 23.964 36.565C23.9293 36.7842 23.8945 36.9857 23.8684 37.1873C23.851 37.3275 23.8336 37.4678 23.8075 37.608C23.764 37.9323 23.7031 38.2653 23.6335 38.6159C23.5552 38.984 23.4682 39.3083 23.3813 39.6063H23.3726Z" fill="white"/>
<path d="M32.1753 28.9488L32.6015 28.8086L32.1753 28.9488Z" fill="white"/>
<path d="M33.6106 28.8874L31.5664 27.713C31.5664 27.713 31.5317 27.7042 31.5143 27.713C31.4969 27.713 31.4882 27.7393 31.4882 27.7568L31.4708 27.9847C31.4708 27.9847 31.4708 28.0285 31.4969 28.0373L32.0797 28.3703L32.0101 29.1328L31.3751 29.352C31.3751 29.352 31.3403 29.3782 31.3403 29.3958L31.3055 29.7639C31.3055 29.7639 31.3055 29.7989 31.3229 29.8077C31.3316 29.8077 31.3403 29.8165 31.3577 29.8165C31.3577 29.8165 31.3664 29.8165 31.3751 29.8165L33.6889 29.0277C33.6889 29.0277 33.7236 29.0014 33.7236 28.9838C33.7236 28.9663 33.7236 28.94 33.6976 28.9313L33.6193 28.8874H33.6106ZM32.3145 29.0277L32.358 28.5281L32.4885 28.607L32.8799 28.8349L32.3058 29.0277H32.3145Z" fill="white"/>
<path d="M2.22679 28.1249L4.43618 28.9313C4.43618 28.9313 4.47097 28.9313 4.48837 28.9313C4.50577 28.9225 4.51446 28.905 4.50577 28.8874L4.48837 28.6596C4.48837 28.6596 4.47097 28.6157 4.45358 28.6157L3.81859 28.3879L3.7577 27.6254L4.34919 27.3011C4.34919 27.3011 4.37529 27.266 4.37529 27.2485L4.34919 26.8804C4.34919 26.8804 4.3405 26.8453 4.3231 26.8366C4.3144 26.8366 4.297 26.8366 4.28831 26.8366C4.28831 26.8366 4.27961 26.8366 4.27091 26.8366L2.13111 28.011C2.13111 28.011 2.10501 28.0373 2.10501 28.0636C2.10501 28.0811 2.12241 28.1074 2.1398 28.1074L2.22679 28.1425V28.1249ZM3.47936 27.7656L3.52285 28.2652L3.37498 28.2126L2.94875 28.0548L3.47936 27.7568V27.7656Z" fill="white"/>
<path d="M2.30508 21.5867L4.3231 22.805C4.3231 22.805 4.3579 22.8137 4.3753 22.805C4.39269 22.805 4.40139 22.7787 4.40139 22.7611L4.42749 22.5333C4.42749 22.5333 4.42749 22.4894 4.40139 22.4807L3.8186 22.1301L3.90558 21.3676L4.54926 21.166C4.54926 21.166 4.58406 21.1397 4.58406 21.1222L4.62755 20.7541C4.62755 20.7541 4.62755 20.719 4.61015 20.7015C4.60145 20.7015 4.59276 20.6927 4.57536 20.6927C4.57536 20.6927 4.56666 20.6927 4.55796 20.6927L2.23549 21.4377C2.23549 21.4377 2.2007 21.464 2.2007 21.4815C2.2007 21.4991 2.2007 21.5254 2.22679 21.5341L2.30508 21.5779V21.5867ZM3.60114 21.4728L3.54895 21.9723L3.41847 21.8935L3.02705 21.6568L3.60984 21.4728H3.60114Z" fill="white"/>
<path d="M45.4839 31.0435C42.9352 31.0435 41.9436 29.4659 41.9436 27.0995V19.1765H43.2571V26.8453C43.2571 28.5193 43.5267 29.9392 45.5447 29.9392C47.6759 29.9392 47.9455 28.6333 47.9455 26.8453V19.1765H49.259V27.0995C49.259 29.685 48.2326 31.0435 45.4926 31.0435H45.4839Z" fill="white"/>
<path d="M55.8349 30.8594V26.3896C55.8349 25.4781 55.9654 23.769 54.6607 23.769C53.0688 23.769 52.3904 26.2756 52.3904 27.5465V30.8594H51.2509V22.8049H52.3904V24.663H52.4252C52.8253 23.4272 53.5386 22.6121 54.9303 22.6121C56.322 22.6121 56.9831 23.8304 56.9831 25.1012V30.8594H55.8436H55.8349Z" fill="white"/>
<path d="M58.6445 20.7015V19.1765H60.158V20.7015H58.6445ZM58.8272 30.8594V22.805H59.9667V30.8594H58.8272Z" fill="white"/>
<path d="M65.6119 30.8594H64.455L61.428 22.8049H62.6545L65.003 29.1679H65.0378L67.0906 22.8049H68.3171L65.6119 30.8594Z" fill="white"/>
<path d="M70.2395 26.0653V26.5386C70.2395 28.3002 71.1093 30.0794 73.0751 30.0794C73.6318 30.0794 74.1189 29.9917 74.6582 29.8603V30.8068C74.0668 30.9909 73.4492 31.0435 72.8316 31.0435C70.0568 31.0435 68.9347 29.1679 68.9347 26.5561C68.9347 24.4614 69.7089 22.6121 72.0574 22.6121C73.9189 22.6121 74.8496 23.9005 74.8496 25.6797V26.0653H70.2482H70.2395ZM71.9965 23.5762C71.0571 23.5762 70.483 24.216 70.3177 25.1012H73.5275C73.5275 24.2248 72.8751 23.5762 71.9965 23.5762Z" fill="white"/>
<path d="M77.7288 27.5202V30.8507H76.5893V22.7962H77.7288V24.3562H77.7636C78.2681 23.1906 79.1553 22.6121 80.434 22.6121V23.8479C78.3725 23.8479 77.7288 25.7585 77.7288 27.5202Z" fill="white"/>
<path d="M83.8437 31.0435C83.1044 31.0435 82.365 30.9208 81.6604 30.7017V29.6499C82.3302 29.8866 83.0174 30.0706 83.7307 30.0706C84.5831 30.0706 85.6791 29.834 85.6791 28.7647C85.6791 27.9672 84.818 27.6341 84.2352 27.3098L83.5132 26.9242C82.5738 26.4159 81.7039 25.9777 81.7039 24.7419C81.7039 23.1468 83.0609 22.6121 84.4439 22.6121C85.0963 22.6121 85.7052 22.7348 86.3228 22.8838V23.9531C85.7487 23.734 85.0615 23.585 84.4613 23.585C83.8611 23.585 82.8521 23.8567 82.8521 24.6367C82.8521 25.3116 83.8263 25.6183 84.2961 25.9075L84.9658 26.3107C85.9401 26.9067 86.8273 27.2923 86.8273 28.6157C86.8273 30.43 85.4529 31.0522 83.8524 31.0522L83.8437 31.0435Z" fill="white"/>
<path d="M88.1842 20.7015V19.1765H89.6978V20.7015H88.1842ZM88.3669 30.8594V22.805H89.5064V30.8594H88.3669Z" fill="white"/>
<path d="M96.2476 30.8594V29.4922H96.2128C95.9432 30.4212 95.0908 31.0522 94.1339 31.0522C91.8289 31.0522 91.3939 28.7823 91.3939 26.9067C91.3939 25.1626 91.9332 22.6209 94.1165 22.6209C95.1603 22.6209 95.8823 23.1468 96.2128 24.1284H96.2476V19.1853H97.3871V30.8682H96.2476V30.8594ZM94.3949 23.5762C92.8292 23.5762 92.6987 25.9952 92.6987 27.117C92.6987 28.2389 92.8814 30.0794 94.3601 30.0794C95.8388 30.0794 96.2389 27.9847 96.2389 26.8629C96.2389 25.741 95.8997 23.5762 94.3949 23.5762Z" fill="white"/>
<path d="M103.72 30.8594V29.7902H103.685C103.25 30.6403 102.119 31.0435 101.232 31.0435C99.8575 31.0435 99.0833 30.167 99.0833 28.791C99.0833 26.9505 101.414 26.2844 102.893 26.2844C103.163 26.2844 103.415 26.2844 103.685 26.2318V26.0653C103.685 24.8646 103.772 23.5762 102.171 23.5762C101.232 23.5762 100.658 23.9005 100.545 24.8646H99.266C99.3008 23.2432 100.71 22.6121 102.136 22.6121C103.946 22.6121 104.824 23.4097 104.824 25.1976V30.8507H103.72V30.8594ZM103.015 27.2047C101.989 27.2047 100.397 27.6254 100.397 28.9137C100.397 29.5886 100.849 30.0794 101.519 30.0794C102.328 30.0794 103.05 29.5535 103.38 28.8261C103.65 28.2126 103.685 27.8795 103.685 27.2047H103.015Z" fill="white"/>
<path d="M111.435 30.8594V29.4922H111.4C111.131 30.4212 110.278 31.0522 109.321 31.0522C107.016 31.0522 106.581 28.7823 106.581 26.9067C106.581 25.1626 107.121 22.6209 109.304 22.6209C110.348 22.6209 111.07 23.1468 111.4 24.1284H111.435V19.1853H112.575V30.8682H111.435V30.8594ZM109.591 23.5762C108.025 23.5762 107.895 25.9952 107.895 27.117C107.895 28.2389 108.077 30.0794 109.556 30.0794C111.035 30.0794 111.435 27.9847 111.435 26.8629C111.435 25.741 111.096 23.5762 109.591 23.5762Z" fill="white"/>
<path d="M46.2232 46.4162V45.049H46.1884C45.9188 45.978 45.0663 46.609 44.1095 46.609C41.8044 46.609 41.3695 44.3391 41.3695 42.4635C41.3695 40.7194 41.9088 38.1777 44.0921 38.1777C45.1359 38.1777 45.8579 38.7036 46.1884 39.6852H46.2232V34.7421H47.3627V46.425H46.2232V46.4162ZM44.3792 39.1418C42.8135 39.1418 42.683 41.5607 42.683 42.6826C42.683 43.8044 42.8656 45.645 44.3444 45.645C45.8231 45.645 46.2232 43.5503 46.2232 42.4284C46.2232 41.3066 45.884 39.1418 44.3792 39.1418Z" fill="white"/>
<path d="M50.355 41.6309V42.1041C50.355 43.8658 51.2248 45.645 53.1906 45.645C53.7473 45.645 54.2344 45.5573 54.7737 45.4258V46.3724C54.1823 46.5565 53.5647 46.609 52.9471 46.609C50.1723 46.609 49.0502 44.7335 49.0502 42.1217C49.0502 40.027 49.8244 38.1777 52.1729 38.1777C54.0344 38.1777 54.9651 39.4661 54.9651 41.2452V41.6309H50.3637H50.355ZM52.1207 39.1418C51.1813 39.1418 50.6072 39.7816 50.4419 40.6668H53.6516C53.6516 39.7903 52.9993 39.1418 52.1207 39.1418Z" fill="white"/>
<path d="M66.8558 46.4162L62.0891 36.5826H62.0543V46.4162H60.8104V34.7333H62.4892L67.2559 44.602H67.2907V34.7333H68.5346V46.4162H66.8558Z" fill="white"/>
<path d="M74.6843 46.4162V45.347H74.6495C74.2146 46.1971 73.0838 46.6003 72.1966 46.6003C70.8223 46.6003 70.0481 45.7238 70.0481 44.3478C70.0481 42.5073 72.3793 41.8412 73.858 41.8412C74.1276 41.8412 74.3799 41.8412 74.6495 41.7886V41.6221C74.6495 40.4214 74.7365 39.133 73.136 39.133C72.1966 39.133 71.6225 39.4573 71.5094 40.4214H70.2308C70.2656 38.8 71.6747 38.1689 73.1012 38.1689C74.9192 38.1689 75.789 38.9665 75.789 40.7544V46.4075H74.6756L74.6843 46.4162ZM73.9798 42.7615C72.9534 42.7615 71.3616 43.1822 71.3616 44.4705C71.3616 45.1454 71.8139 45.6362 72.4836 45.6362C73.2926 45.6362 74.0146 45.1103 74.3451 44.3829C74.6148 43.7694 74.6495 43.4363 74.6495 42.7615H73.9798Z" fill="white"/>
<path d="M80.9385 46.4162H79.7816L76.7546 38.3617H77.981L80.3296 44.7247H80.3644L82.4172 38.3617H83.6437L80.9385 46.4162Z" fill="white"/>
<path d="M88.9497 46.4162V45.347H88.9149C88.48 46.1971 87.3492 46.6003 86.462 46.6003C85.0876 46.6003 84.3135 45.7238 84.3135 44.3478C84.3135 42.5073 86.6446 41.8412 88.1233 41.8412C88.393 41.8412 88.6453 41.8412 88.9149 41.7886V41.6221C88.9149 40.4214 89.0019 39.133 87.4014 39.133C86.462 39.133 85.8879 39.4573 85.7748 40.4214H84.4961C84.5309 38.8 85.9401 38.1689 87.3666 38.1689C89.1759 38.1689 90.0544 38.9665 90.0544 40.7544V46.4075H88.9497V46.4162ZM88.2451 42.7615C87.2187 42.7615 85.6269 43.1822 85.6269 44.4705C85.6269 45.1454 86.0792 45.6362 86.749 45.6362C87.558 45.6362 88.2799 45.1103 88.6105 44.3829C88.8801 43.7694 88.9149 43.4363 88.9149 42.7615H88.2451Z" fill="white"/>
<path d="M92.9857 43.0858V46.4162H91.8463V38.3617H92.9857V39.9218H93.0205C93.525 38.7561 94.4123 38.1777 95.6909 38.1777V39.4135C93.6207 39.4135 92.9857 41.3241 92.9857 43.0858Z" fill="white"/>
<path d="M98.3091 43.0858V46.4162H97.1697V38.3617H98.3091V39.9218H98.3439C98.8484 38.7561 99.7357 38.1777 101.014 38.1777V39.4135C98.9441 39.4135 98.3091 41.3241 98.3091 43.0858Z" fill="white"/>
<path d="M106.564 46.4162V45.347H106.529C106.094 46.1971 104.963 46.6003 104.076 46.6003C102.702 46.6003 101.928 45.7238 101.928 44.3478C101.928 42.5073 104.259 41.8412 105.738 41.8412C106.007 41.8412 106.259 41.8412 106.529 41.7886V41.6221C106.529 40.4214 106.616 39.133 105.016 39.133C104.076 39.133 103.502 39.4573 103.389 40.4214H102.11C102.145 38.8 103.554 38.1689 104.981 38.1689C106.799 38.1689 107.669 38.9665 107.669 40.7544V46.4075H106.555L106.564 46.4162ZM105.859 42.7615C104.833 42.7615 103.241 43.1822 103.241 44.4705C103.241 45.1454 103.693 45.6362 104.363 45.6362C105.172 45.6362 105.894 45.1103 106.225 44.3829C106.494 43.7694 106.529 43.4363 106.529 42.7615H105.859Z" fill="white"/>
<path d="M150.821 22.4719V26.0302H154.544V27.0294H150.821V32.0952H149.63V21.4728H154.736V22.4719H150.821Z" fill="white"/>
<path d="M162.216 32.0864L161.164 28.8086H157.406L156.38 32.0864H155.188L158.545 21.464H159.998L163.408 32.0864H162.216ZM159.294 22.5595H159.259L157.719 27.8094H160.833L159.294 22.5595Z" fill="white"/>
<path d="M170.436 24.365C170.436 23.1818 169.732 22.3054 168.514 22.3054C166.191 22.3054 165.843 24.8295 165.843 26.6438C165.843 28.642 166.409 31.2626 168.888 31.2626C169.801 31.2626 170.671 30.9558 171.393 30.3861V31.6307C170.419 32.0601 169.679 32.2617 168.601 32.2617C165.435 32.2617 164.556 29.2292 164.556 26.5824C164.556 23.9356 165.461 21.3062 168.531 21.3062C170.393 21.3062 171.802 22.4105 171.802 24.3738H170.454L170.436 24.365Z" fill="white"/>
<path d="M176.612 32.2617C174.29 32.2617 173.385 30.8331 173.385 28.6771V21.4728H174.577V28.4492C174.577 29.9742 174.82 31.2626 176.656 31.2626C178.595 31.2626 178.839 30.0794 178.839 28.4492V21.4728H180.03V28.6771C180.03 31.0347 179.1 32.2617 176.612 32.2617Z" fill="white"/>
<path d="M182.753 32.0864V21.464H183.945V31.0873H187.72V32.0864H182.753Z" fill="white"/>
<path d="M191.312 22.4719V32.0952H190.121V22.4719H187.598V21.4728H193.835V22.4719H191.312Z" fill="white"/>
<path d="M200.907 32.0864L199.854 28.8086H196.096L195.07 32.0864H193.878L197.236 21.464H198.689L202.098 32.0864H200.907ZM197.984 22.5595H197.949L196.41 27.8094H199.524L197.984 22.5595Z" fill="white"/>
<path d="M207.935 31.7972C207.23 32.0426 206.465 32.0864 205.734 32.0864H203.751V21.464H206.117C209.509 21.464 210.44 23.6814 210.44 26.7402C210.44 28.756 210.075 31.0522 207.935 31.7885V31.7972ZM207.335 22.6998C206.804 22.4982 206.187 22.4719 205.612 22.4719H204.943V31.0961H205.752C206.352 31.0961 206.987 31.0522 207.543 30.8068C209.014 30.132 209.144 28.1775 209.144 26.7752C209.144 25.2853 208.987 23.2958 207.343 22.7085L207.335 22.6998Z" fill="white"/>
<path d="M221.087 31.7972C220.382 32.0426 219.617 32.0864 218.886 32.0864H216.903V21.464H219.269C222.661 21.464 223.592 23.6814 223.592 26.7402C223.592 28.756 223.227 31.0522 221.087 31.7885V31.7972ZM220.495 22.6998C219.965 22.4982 219.347 22.4719 218.773 22.4719H218.103V31.0961H218.912C219.512 31.0961 220.147 31.0522 220.704 30.8068C222.174 30.132 222.305 28.1775 222.305 26.7752C222.305 25.2853 222.148 23.2958 220.504 22.7085L220.495 22.6998Z" fill="white"/>
<path d="M225.888 32.0864V21.464H230.994V22.4631H227.08V26.0215H230.803V27.0206H227.08V31.0873H231.125V32.0864H225.888Z" fill="white"/>
<path d="M155.005 38.8964C155.005 37.7132 154.301 36.8367 153.083 36.8367C150.76 36.8367 150.412 39.3609 150.412 41.1751C150.412 43.1734 150.978 45.794 153.448 45.794C154.362 45.794 155.24 45.4872 155.953 44.9175V46.1621C154.979 46.5915 154.24 46.7931 153.161 46.7931C150.004 46.7931 149.116 43.7606 149.116 41.1138C149.116 38.4669 150.021 35.8376 153.092 35.8376C154.953 35.8376 156.362 36.9419 156.362 38.9051H155.014L155.005 38.8964Z" fill="white"/>
<path d="M161.285 46.7931C158.18 46.7931 157.528 43.8395 157.528 41.2978C157.528 38.7561 158.18 35.8376 161.285 35.8376C164.391 35.8376 165.026 38.7649 165.026 41.2978C165.026 43.8307 164.373 46.7931 161.285 46.7931ZM161.285 36.828C159.067 36.828 158.824 39.6151 158.824 41.2803C158.824 42.9455 159.067 45.794 161.285 45.794C163.504 45.794 163.73 42.928 163.73 41.2803C163.73 39.6326 163.504 36.828 161.285 36.828Z" fill="white"/>
<path d="M175.829 46.6178V37.275H175.794L172.689 46.6178H171.515L168.409 37.275H168.375V46.6178H167.305V35.9954H169.088L172.08 45.0315H172.115L175.107 35.9954H176.882V46.6178H175.812H175.829Z" fill="white"/>
<path d="M182.831 46.7931C180.509 46.7931 179.604 45.3645 179.604 43.2085V36.0041H180.796V42.9718C180.796 44.4968 181.04 45.7852 182.875 45.7852C184.815 45.7852 185.058 44.602 185.058 42.9718V36.0041H186.25V43.2085C186.25 45.5661 185.319 46.7931 182.831 46.7931Z" fill="white"/>
<path d="M194.47 46.6178L190.129 37.6781H190.095V46.6178H188.964V35.9954H190.495L194.835 44.9701H194.87V35.9954H196.001V46.6178H194.47Z" fill="white"/>
<path d="M198.889 46.6178V35.9954H200.08V46.6178H198.889Z" fill="white"/>
<path d="M208.361 38.8964C208.361 37.7132 207.657 36.8367 206.439 36.8367C204.116 36.8367 203.768 39.3609 203.768 41.1751C203.768 43.1734 204.334 45.794 206.813 45.794C207.726 45.794 208.596 45.4872 209.318 44.9175V46.1621C208.344 46.5915 207.604 46.7931 206.526 46.7931C203.36 46.7931 202.481 43.7606 202.481 41.1138C202.481 38.4669 203.386 35.8376 206.456 35.8376C208.318 35.8376 209.727 36.9419 209.727 38.9051H208.379L208.361 38.8964Z" fill="white"/>
<path d="M217.268 46.6178L216.216 43.3399H212.458L211.432 46.6178H210.24L213.598 35.9954H215.05L218.46 46.6178H217.268ZM214.354 37.0909H214.32L212.78 42.3408H215.894L214.354 37.0909Z" fill="white"/>
<path d="M225.488 38.8964C225.488 37.7132 224.784 36.8367 223.566 36.8367C221.243 36.8367 220.896 39.3609 220.896 41.1751C220.896 43.1734 221.461 45.794 223.931 45.794C224.845 45.794 225.723 45.4872 226.436 44.9175V46.1621C225.462 46.5915 224.723 46.7931 223.644 46.7931C220.487 46.7931 219.599 43.7606 219.599 41.1138C219.599 38.4669 220.504 35.8376 223.575 35.8376C225.436 35.8376 226.845 36.9419 226.845 38.9051H225.497L225.488 38.8964Z" fill="white"/>
<path d="M228.611 46.6178V35.9954H229.803V46.6178H228.611Z" fill="white"/>
<path d="M235.944 46.7931C232.838 46.7931 232.186 43.8395 232.186 41.2978C232.186 38.7561 232.847 35.8376 235.944 35.8376C239.04 35.8376 239.684 38.7649 239.684 41.2978C239.684 43.8307 239.023 46.7931 235.944 46.7931ZM235.944 36.828C233.726 36.828 233.482 39.615 233.482 41.2803C233.482 42.9455 233.726 45.7939 235.944 45.7939C238.162 45.7939 238.388 42.928 238.388 41.2803C238.388 39.6326 238.162 36.828 235.944 36.828ZM236.413 34.7245H235.448L236.092 32.6649H237.44L236.413 34.7245Z" fill="white"/>
<path d="M247.478 46.6178L243.137 37.6781H243.102V46.6178H241.972V35.9954H243.503L247.843 44.9701H247.878V35.9954H249.009V46.6178H247.478Z" fill="white"/>
<path d="M131.711 20.0617V47.7835" stroke="white" stroke-miterlimit="10"/>
</g>
<defs>
<clipPath id="clip0_364_7413">
<rect width="249" height="51" fill="white"/>
</clipPath>
</defs>
</svg>
