<svg width="679" height="197" viewBox="0 0 679 197" fill="none" xmlns="http://www.w3.org/2000/svg">
<g clip-path="url(#clip0_140_5841)">
<path d="M3.71887 2.25018H50.5398C74.6021 2.25018 89.5596 15.2488 89.5596 38.4762C89.5596 61.7037 74.7668 74.5378 50.7045 74.5378H36.3989V115.961H3.71887V2.25018ZM36.3989 25.6422V52.1193H45.1812C52.9824 52.1193 57.5383 47.8961 57.5383 38.963C57.5383 30.0299 52.9893 25.6422 45.1812 25.6422H36.3989Z" fill="white"/>
<path d="M95.2544 2.25018H127.77V115.967H95.2544V2.25018Z" fill="white"/>
<path d="M134.597 59.1122C134.597 19.1429 151.338 0.13858 180.279 0.13858C209.219 0.13858 225.961 19.1429 225.961 59.1122C225.961 99.0815 209.377 118.079 180.279 118.079C151.18 118.079 134.597 99.0747 134.597 59.1122ZM192.958 59.1122C192.958 33.9308 188.409 25.4845 180.279 25.4845C172.148 25.4845 167.764 33.9308 167.764 59.1122C167.764 84.2936 172.155 92.7399 180.279 92.7399C188.402 92.7399 192.958 84.2936 192.958 59.1122Z" fill="white"/>
<path d="M233.151 2.25017H266.97L279.162 34.0885L291.52 67.0649L291.032 33.924L290.868 2.24332H317.366V115.961H283.547L271.354 84.2799L259.162 51.6257L259.649 84.4375L259.814 115.954H233.151V2.25017Z" fill="white"/>
<path d="M325.002 2.25018H400.277V26.2935H357.682V46.1136H389.875V69.5056H357.682V92.5754H400.277V115.967H325.002V2.25018Z" fill="white"/>
<path d="M407.755 2.25018H456.203C480.587 2.25018 493.432 14.762 493.432 33.7663C493.432 45.6269 487.901 55.0467 477.987 60.2434C488.066 63.6576 491.318 71.4527 491.318 82.6619C491.483 95.1737 491.641 106.705 495.058 115.967H462.378C459.448 108.981 459.29 99.5615 459.29 81.0439C459.125 74.5446 456.69 71.4595 451.16 71.4595H440.429V115.974H407.749V2.25018H407.755ZM440.435 25.1554V50.0077H449.863C457.177 50.0077 461.568 45.7845 461.568 37.4959C461.568 29.2072 457.177 25.1486 449.863 25.1486H440.435V25.1554Z" fill="white"/>
<path d="M497.843 59.1122C497.843 19.1497 514.591 0.13858 543.525 0.13858C572.459 0.13858 589.207 19.1429 589.207 59.1122C589.207 99.0815 572.624 118.079 543.525 118.079C514.427 118.079 497.843 99.0747 497.843 59.1122ZM556.205 59.1122C556.205 33.9308 551.656 25.4845 543.525 25.4845C535.395 25.4845 531.004 33.9308 531.004 59.1122C531.004 84.2936 535.395 92.7399 543.525 92.7399C551.656 92.7399 556.205 84.2936 556.205 59.1122Z" fill="white"/>
<path d="M593.111 78.2811H623.349C624.323 90.2993 628.062 95.5028 635.706 95.5028C641.723 95.5028 645.462 91.7664 645.462 86.8919C645.462 79.5836 637.819 75.8472 628.392 71.6241C613.27 64.9671 593.598 57.3297 593.598 33.7732C593.598 14.2821 607.904 0.145447 632.783 0.145447C657.662 0.145447 673.099 13.4663 675.707 39.1344H645.792C644.653 28.2474 640.749 23.0507 633.764 23.0507C628.234 23.0507 625.146 26.1358 625.146 30.8457C625.146 38.154 633.441 42.055 643.521 46.4427C658.313 52.942 677.01 60.9016 677.01 83.8068C677.01 103.627 661.888 118.086 636.364 118.086C610.841 118.086 595.396 104.765 593.118 78.2879L593.111 78.2811Z" fill="white"/>
<path d="M0.240108 175.435C-0.109814 174.166 -0.0755081 172.425 0.343026 170.204C0.761561 167.982 1.55746 165.466 2.73759 162.662C4.05495 159.44 5.62616 156.91 7.45125 155.093C9.27633 153.27 11.122 152.365 12.9951 152.365C13.7567 152.365 14.6624 152.571 15.7053 152.989C16.7482 153.407 17.8254 153.997 18.9301 154.758L23.1497 143.363H18.6213V142.273C20.1445 141.889 21.7638 141.478 23.4653 141.025C24.8856 140.641 26.3127 140.264 27.733 139.88L16.0689 171.355C15.5818 172.672 15.3073 173.59 15.2319 174.111C15.1564 174.632 15.2662 174.893 15.5475 174.893C15.8562 174.893 16.3983 174.557 17.1599 173.878C17.9215 173.2 18.7311 172.267 19.5819 171.067C20.4327 169.868 21.1325 168.524 21.6883 167.036L22.5734 167.194C22.2578 169.244 21.5922 171.033 20.5699 172.576C19.5476 174.118 18.4018 175.298 17.1324 176.113C15.8631 176.929 14.6967 177.334 13.6195 177.334C12.5423 177.334 11.9522 176.765 11.8493 175.62C11.7464 174.475 12.11 172.809 12.9402 170.629C13.5646 169.066 14.086 167.804 14.5046 166.831C14.9231 165.857 15.4446 164.596 16.0689 163.032C16.5904 161.819 17.0913 160.606 17.5784 159.392L17.2628 159.289L15.9592 161.476C13.4617 165.741 11.4719 168.949 9.99676 171.102C8.5216 173.254 7.18366 174.831 5.98981 175.839C4.79596 176.847 3.58838 177.347 2.37395 177.347C1.29674 177.347 0.583169 176.717 0.240108 175.448V175.435ZM8.56963 170.416C10.6897 167.64 13.1872 163.793 16.0689 158.864L17.2628 156.89C16.3914 156.266 15.4926 155.683 14.5526 155.148C13.6126 154.614 12.7481 154.202 11.9522 153.928C10.9436 154.689 9.92129 155.882 8.87838 157.493C7.83548 159.104 6.75827 161.216 5.65361 163.814C4.99493 165.377 4.4529 166.995 4.04122 168.675C3.62269 170.361 3.41685 171.76 3.41685 172.891C3.41685 174.022 3.62269 174.585 4.04122 174.585C4.9469 174.585 6.45637 173.2 8.56963 170.423V170.416Z" fill="white"/>
<path d="M24.7072 175.647C23.8358 174.523 23.4104 172.967 23.431 170.992C23.4516 169.018 23.925 166.776 24.865 164.28C25.7707 161.888 26.9234 159.79 28.3299 157.987C29.7365 156.184 31.2185 154.799 32.7829 153.825C34.3472 152.852 35.8018 152.365 37.1534 152.365C38.1964 152.365 39.0815 152.687 39.8087 153.325C40.536 153.969 40.8997 154.758 40.8997 155.69C40.934 156.869 40.3782 158.185 39.2324 159.646C38.0866 161.099 36.4605 162.601 34.3609 164.143C32.2614 165.686 29.86 167.132 27.1498 168.49C26.7999 170.464 26.8479 172.062 27.2802 173.275C27.7124 174.489 28.4671 175.099 29.5444 175.099C30.3746 175.099 31.3694 174.756 32.5153 174.057C33.6611 173.364 34.7795 172.398 35.8704 171.17C36.9613 169.936 37.8258 168.579 38.4502 167.084L39.3902 167.29C39.006 169.093 38.265 170.766 37.1534 172.308C36.0419 173.851 34.704 175.078 33.1465 175.976C31.5821 176.881 30.0041 177.327 28.4054 177.327C26.8067 177.327 25.5786 176.765 24.7072 175.633V175.647ZM32.728 162.875C34.4295 161.209 35.7949 159.557 36.8172 157.904C37.8396 156.259 38.3199 154.915 38.2512 153.873C37.0368 153.942 35.7675 154.552 34.4501 155.697C33.1328 156.842 31.9046 158.275 30.7794 159.989C29.6541 161.702 28.7759 163.382 28.1515 165.007C27.9114 165.699 27.6987 166.378 27.5272 167.036C29.2974 165.926 31.0332 164.541 32.7348 162.875H32.728Z" fill="white"/>
<path d="M49.4419 175.647C49.339 174.523 49.7164 172.85 50.5878 170.629L60.7424 143.363H56.214V142.273C57.744 141.889 59.3358 141.478 61.0031 141.025C62.4234 140.641 63.8505 140.264 65.2708 139.88L53.6616 171.355C53.1401 172.672 52.8451 173.59 52.7765 174.111C52.7079 174.632 52.8108 174.893 53.0921 174.893C53.4077 174.893 53.9429 174.564 54.7045 173.906C55.4661 173.248 56.2757 172.322 57.1265 171.122C57.9773 169.929 58.6977 168.565 59.2878 167.036L60.1729 167.194C59.823 169.244 59.1574 171.033 58.1694 172.576C57.1814 174.118 56.0424 175.298 54.7594 176.113C53.4763 176.929 52.2962 177.334 51.219 177.334C50.1418 177.334 49.5517 176.772 49.4488 175.64L49.4419 175.647Z" fill="white"/>
<path d="M62.4576 175.647C61.4833 174.523 60.9824 172.932 60.9481 170.889C60.9138 168.839 61.4009 166.522 62.4027 163.917C63.7886 160.174 65.5588 157.308 67.7133 155.333C69.8677 153.359 72.1182 152.365 74.4853 152.365C76.1869 152.365 77.5248 152.927 78.4922 154.058C79.4665 155.183 79.9674 156.773 80.0017 158.816C80.036 160.866 79.5695 163.183 78.5952 165.789C77.2092 169.532 75.4253 172.398 73.2571 174.372C71.089 176.346 68.8248 177.341 66.4645 177.341C64.7629 177.341 63.425 176.778 62.4576 175.647ZM71.1233 172.576C72.8043 170.684 74.204 168.161 75.3155 165.007C76.1457 162.82 76.7015 160.825 76.9828 159.022C77.2572 157.219 77.2778 155.8 77.0377 154.758C76.7564 154.655 76.427 154.552 76.0496 154.442C75.6654 154.339 75.2675 154.284 74.8558 154.284C73.1885 154.284 71.5212 155.231 69.854 157.123C68.1867 159.015 66.7801 161.538 65.6343 164.692C64.8384 166.879 64.2964 168.874 64.0219 170.677C63.7406 172.48 63.7269 173.899 63.967 174.941C64.1729 175.044 64.4816 175.147 64.8796 175.256C65.2775 175.359 65.7029 175.414 66.1558 175.414C67.7887 175.414 69.4423 174.468 71.1302 172.576H71.1233Z" fill="white"/>
<path d="M98.3899 150.336C100.29 146.798 102.925 144.035 106.287 142.04C109.649 140.052 113.478 139.058 117.773 139.058C122.068 139.058 125.67 140.018 128.991 141.944C132.312 143.871 134.912 146.551 136.792 150.007C138.672 153.455 139.612 157.349 139.612 161.682C139.612 166.015 138.761 169.806 137.053 173.193C135.351 176.58 132.977 179.295 129.952 181.351C126.919 183.408 123.454 184.587 119.564 184.903C121.155 187.11 123.282 188.838 125.938 190.079C128.593 191.32 131.482 191.971 134.603 192.033C137.725 192.101 140.765 191.512 143.729 190.278L141.602 195.652C138.459 196.667 135.214 196.893 131.873 196.317C128.531 195.742 125.478 194.46 122.713 192.471C119.948 190.483 117.855 187.981 116.442 184.978C112.366 184.848 108.75 183.806 105.587 181.859C102.424 179.912 99.9543 177.251 98.1841 173.865C96.4139 170.485 95.5288 166.666 95.5288 162.422C95.5288 157.911 96.4825 153.887 98.3831 150.349L98.3899 150.336ZM103.467 172.624C104.819 175.764 106.719 178.184 109.176 179.891C111.632 181.591 114.5 182.448 117.773 182.448C121.046 182.448 123.749 181.605 126.137 179.925C128.524 178.246 130.384 175.901 131.715 172.891C133.039 169.881 133.705 166.371 133.705 162.347C133.705 158.323 133.032 154.552 131.681 151.433C130.329 148.313 128.428 145.907 125.972 144.2C123.516 142.499 120.648 141.642 117.375 141.642C114.102 141.642 111.399 142.486 109.011 144.165C106.623 145.845 104.764 148.19 103.433 151.199C102.109 154.209 101.443 157.726 101.443 161.751C101.443 165.775 102.116 169.491 103.467 172.631V172.624Z" fill="white"/>
<path d="M145.924 144.069C145.657 143.514 145.115 143.11 144.298 142.842C143.482 142.575 142.075 142.314 140.085 142.047V140.388H158.144V142.047C156.065 142.314 154.604 142.575 153.76 142.842C152.916 143.11 152.353 143.514 152.065 144.069C151.777 144.625 151.633 145.543 151.633 146.825V168.983C151.633 173.453 152.669 176.813 154.755 179.068C156.834 181.324 159.935 182.455 164.052 182.455C168.388 182.455 171.729 181.296 174.076 178.972C176.422 176.648 177.596 173.323 177.596 168.99V146.832C177.596 145.55 177.452 144.632 177.163 144.076C176.875 143.521 176.278 143.103 175.373 142.815C174.467 142.527 172.923 142.273 170.762 142.054V140.395H186.563V142.054C184.745 142.321 183.442 142.582 182.646 142.849C181.85 143.116 181.328 143.521 181.088 144.076C180.841 144.632 180.724 145.55 180.724 146.832V169.189C180.724 174.187 179.242 178.081 176.278 180.864C173.314 183.648 169.15 185.047 163.798 185.047C158.446 185.047 153.918 183.689 150.885 180.967C147.852 178.246 146.336 174.434 146.336 169.525V146.839C146.336 145.557 146.206 144.638 145.938 144.083L145.924 144.069Z" fill="white"/>
<path d="M218.153 180.158C219.079 179.473 219.882 178.376 220.54 176.874C221.206 175.373 221.864 173.179 222.53 170.307H224.122L222.928 183.71H187.943V182.051C189.98 181.783 191.394 181.529 192.19 181.29C192.986 181.05 193.521 180.652 193.782 180.097C194.049 179.541 194.179 178.602 194.179 177.279V146.832C194.179 145.55 194.049 144.632 193.782 144.076C193.514 143.521 192.972 143.116 192.155 142.849C191.339 142.582 189.932 142.321 187.943 142.054V140.395H222.53V153.332H220.87C220.561 150.726 220.149 148.69 219.641 147.23C219.134 145.77 218.4 144.686 217.453 143.98C216.499 143.274 215.23 142.918 213.638 142.918H199.497V160.427H209.72C210.825 160.427 211.689 160.249 212.307 159.899C212.924 159.543 213.425 158.871 213.803 157.877C214.18 156.883 214.523 155.347 214.832 153.27H216.492V170.053H214.832C214.523 168.017 214.166 166.515 213.768 165.542C213.37 164.568 212.869 163.903 212.273 163.554C211.676 163.197 210.825 163.026 209.713 163.026H199.49V181.2H214.496C215.998 181.2 217.219 180.858 218.146 180.172L218.153 180.158Z" fill="white"/>
<path d="M268.075 180.158C269.001 179.473 269.804 178.376 270.462 176.874C271.128 175.373 271.787 173.179 272.452 170.307H274.044L272.85 183.71H237.865V182.051C239.903 181.783 241.316 181.529 242.112 181.29C242.908 181.05 243.443 180.652 243.704 180.097C243.971 179.541 244.102 178.602 244.102 177.279V146.832C244.102 145.55 243.971 144.632 243.704 144.076C243.436 143.521 242.894 143.116 242.078 142.849C241.261 142.582 239.855 142.321 237.865 142.054V140.395H272.452V153.332H270.792C270.483 150.726 270.071 148.69 269.564 147.23C269.056 145.77 268.322 144.686 267.375 143.98C266.421 143.274 265.152 142.918 263.56 142.918H249.419V160.427H259.642C260.747 160.427 261.611 160.249 262.229 159.899C262.847 159.543 263.347 158.871 263.725 157.877C264.102 156.883 264.445 155.347 264.754 153.27H266.414V170.053H264.754C264.445 168.017 264.088 166.515 263.69 165.542C263.292 164.568 262.792 163.903 262.195 163.554C261.598 163.197 260.747 163.026 259.635 163.026H249.412V181.2H264.418C265.92 181.2 267.142 180.858 268.068 180.172L268.075 180.158Z" fill="white"/>
<path d="M278.963 167.516H280.624C280.754 171.41 281.276 174.427 282.181 176.573C283.087 178.719 284.446 180.234 286.264 181.118C288.075 182.002 290.511 182.448 293.564 182.448C296.617 182.448 298.895 181.728 300.665 180.295C302.436 178.856 303.321 176.902 303.321 174.427C303.321 172.925 302.943 171.616 302.196 170.512C301.441 169.408 300.281 168.401 298.71 167.496C297.139 166.591 294.936 165.562 292.103 164.41C288.603 162.998 285.852 161.648 283.835 160.366C281.818 159.084 280.349 157.692 279.423 156.184C278.497 154.682 278.03 152.913 278.03 150.877C278.03 148.491 278.668 146.4 279.958 144.611C281.241 142.822 283.08 141.45 285.468 140.497C287.856 139.544 290.648 139.071 293.832 139.071C296.357 139.071 298.731 139.318 300.967 139.798C303.204 140.285 305.29 140.902 307.239 141.656L305.112 155.656H303.451C303.54 152.07 303.204 149.28 302.456 147.264C301.702 145.255 300.487 143.816 298.806 142.952C297.125 142.088 294.868 141.656 292.034 141.656C289.2 141.656 286.964 142.355 285.331 143.747C283.691 145.139 282.874 147.052 282.874 149.485C282.874 151.035 283.252 152.358 284 153.469C284.754 154.572 285.934 155.594 287.554 156.519C289.166 157.445 291.458 158.508 294.422 159.701C297.784 161.031 300.453 162.313 302.422 163.547C304.391 164.788 305.839 166.145 306.772 167.626C307.698 169.107 308.165 170.869 308.165 172.898C308.165 175.332 307.492 177.464 306.141 179.301C304.789 181.139 302.875 182.551 300.398 183.545C297.921 184.539 294.998 185.04 291.636 185.04C289.2 185.04 286.833 184.717 284.535 184.08C282.229 183.442 280.089 182.544 278.092 181.392L278.957 167.53L278.963 167.516Z" fill="white"/>
<path d="M323.507 181.248C324.481 180.981 325.112 180.583 325.4 180.055C325.688 179.528 325.832 178.595 325.832 177.272V142.911H319.527C318.024 142.911 316.796 143.24 315.843 143.905C314.889 144.57 314.127 145.653 313.551 147.154C312.975 148.656 312.556 150.713 312.288 153.325H310.697V140.388H346.546V153.325H344.955C344.687 150.72 344.269 148.663 343.692 147.154C343.116 145.653 342.354 144.57 341.401 143.905C340.447 143.24 339.219 142.911 337.716 142.911H331.411V177.272C331.411 178.595 331.555 179.528 331.843 180.055C332.131 180.583 332.762 180.981 333.737 181.248C334.711 181.516 336.392 181.776 338.78 182.044V183.703H318.463V182.044C320.851 181.776 322.532 181.516 323.507 181.248Z" fill="white"/>
<path d="M345.119 181.317C345.805 181.008 346.368 180.535 346.814 179.891C347.253 179.253 347.74 178.307 348.276 177.073L362.348 143.973C362.039 143.219 361.394 142.047 360.42 140.456V140.388H366.465L381.731 177.073C382.259 178.355 382.76 179.294 383.227 179.891C383.693 180.487 384.276 180.954 384.983 181.283C385.69 181.612 386.685 181.872 387.968 182.044V183.703H370.177V182.044C372.386 181.776 373.95 181.468 374.856 181.118C375.762 180.762 376.297 180.302 376.448 179.726C376.599 179.151 376.482 178.355 376.084 177.341L372.633 168.983H355.041L351.521 177.341C351.034 178.533 350.855 179.411 350.993 179.959C351.123 180.515 351.658 180.919 352.584 181.187C353.511 181.454 355.15 181.742 357.497 182.051V183.71H342.231V182.051C343.466 181.872 344.433 181.632 345.119 181.324V181.317ZM371.576 166.46L363.94 147.621L356.042 166.46H371.576ZM361.682 136.343L360.289 134.951L370.78 121.884L374.698 125.799L361.682 136.35V136.343Z" fill="white"/>
<path d="M492.443 144.056C491.997 143.329 491.428 142.808 490.714 142.5C490.008 142.191 488.944 141.944 487.531 141.773V140.114H506.516V141.773C504.258 141.951 502.598 142.246 501.535 142.671C500.471 143.089 499.806 143.665 499.545 144.399C499.277 145.125 499.366 146.113 499.812 147.353L511.497 178.794L522.983 147.353C523.511 145.941 523.669 144.878 523.449 144.172C523.23 143.466 522.605 142.945 521.59 142.616C520.574 142.287 518.914 142.006 516.609 141.787V140.127H532.479V141.787C531.285 141.965 530.331 142.218 529.624 142.548C528.918 142.877 528.307 143.446 527.799 144.241C527.292 145.036 526.75 146.188 526.173 147.689L512.698 183.641H507.916L494.104 147.689C493.438 146.01 492.883 144.803 492.443 144.076V144.056Z" fill="white"/>
<path d="M563.018 179.877C563.944 179.192 564.747 178.095 565.406 176.593C566.071 175.092 566.737 172.898 567.395 170.025H568.987L567.793 183.429H532.808V181.769C534.846 181.502 536.259 181.248 537.055 181.008C537.851 180.769 538.386 180.371 538.647 179.816C538.914 179.26 539.045 178.321 539.045 176.998V146.551C539.045 145.269 538.914 144.35 538.647 143.795C538.379 143.24 537.837 142.835 537.021 142.568C536.204 142.301 534.798 142.04 532.808 141.773V140.114H567.395V153.05H565.735C565.426 150.445 565.015 148.409 564.507 146.949C563.999 145.489 563.265 144.405 562.318 143.699C561.364 142.993 560.095 142.637 558.503 142.637H544.362V160.146H554.585C555.69 160.146 556.555 159.968 557.172 159.618C557.79 159.262 558.291 158.59 558.668 157.596C559.045 156.602 559.388 155.066 559.697 152.989H561.358V169.772H559.697C559.388 167.736 559.032 166.234 558.634 165.261C558.236 164.287 557.735 163.622 557.138 163.272C556.541 162.916 555.69 162.745 554.579 162.745H544.355V180.919H559.361C560.864 180.919 562.085 180.577 563.011 179.891L563.018 179.877Z" fill="white"/>
<path d="M575.464 181.008C576.281 180.721 576.823 180.302 577.09 179.747C577.358 179.192 577.488 178.28 577.488 176.991V146.942L571.848 140.107H578.552L608.364 175.462V146.537C608.364 145.207 608.206 144.268 607.897 143.72C607.588 143.164 606.937 142.76 605.942 142.493C604.947 142.225 603.211 141.985 600.727 141.766V140.107H617.722V141.766C615.733 141.985 614.326 142.239 613.51 142.527C612.693 142.815 612.151 143.233 611.884 143.788C611.616 144.344 611.486 145.262 611.486 146.544V183.627H607.904L580.617 150.726V176.998C580.617 178.321 580.768 179.267 581.084 179.816C581.392 180.371 582.044 180.775 583.039 181.043C584.034 181.31 585.77 181.55 588.254 181.769V183.429H571.258V181.769C573.248 181.55 574.655 181.296 575.471 181.008H575.464Z" fill="white"/>
<path d="M623.465 180.974C624.282 180.707 624.824 180.302 625.091 179.747C625.359 179.192 625.489 178.28 625.489 176.991V146.544C625.489 145.262 625.359 144.344 625.091 143.788C624.824 143.233 624.282 142.829 623.465 142.561C622.649 142.294 621.242 142.033 619.253 141.766V140.107H637.112V141.766C635.074 142.033 633.647 142.294 632.831 142.561C632.014 142.829 631.472 143.233 631.205 143.788C630.937 144.344 630.807 145.262 630.807 146.544V176.991C630.807 178.273 630.937 179.192 631.205 179.747C631.472 180.302 632.014 180.707 632.831 180.974C633.647 181.242 635.074 181.502 637.112 181.769V183.429H619.253V181.769C621.242 181.502 622.649 181.242 623.465 180.974Z" fill="white"/>
<path d="M643.61 181.009C644.406 180.769 644.941 180.371 645.202 179.816C645.469 179.26 645.6 178.321 645.6 176.998V146.551C645.6 145.221 645.469 144.282 645.202 143.733C644.934 143.178 644.406 142.781 643.61 142.541C642.814 142.301 641.394 142.04 639.363 141.78V140.12H657.62C662.444 140.12 666.238 141.149 669.003 143.206C671.768 145.262 673.154 148.149 673.154 151.864C673.154 155.046 672.146 157.671 670.135 159.728C668.118 161.785 665.298 163.142 661.669 163.807L670.897 177.073C671.116 177.382 671.453 177.827 671.892 178.403C672.818 179.507 673.772 180.296 674.746 180.755C675.72 181.221 677.134 181.564 678.993 181.783V183.442H668.969L656.09 164.273H650.91V177.012C650.91 178.335 651.054 179.281 651.342 179.829C651.631 180.385 652.193 180.789 653.037 181.057C653.874 181.324 655.336 181.564 657.421 181.783V183.442H639.363V181.783C641.401 181.516 642.814 181.262 643.61 181.022V181.009ZM664.489 159.317C666.327 157.706 667.247 155.436 667.247 152.516C667.247 149.376 666.293 146.956 664.392 145.249C662.492 143.548 659.699 142.691 656.029 142.691H650.917V161.73H656.427C659.967 161.73 662.657 160.921 664.495 159.31L664.489 159.317Z" fill="white"/>
<path d="M405.869 185.382C406.411 185.177 406.843 184.855 407.172 184.423C407.502 183.991 407.838 183.271 408.188 182.263L418.342 154.998C418.377 154.929 418.397 154.874 418.397 154.84C418.397 154.806 418.377 154.785 418.342 154.785C417.889 154.785 417.231 155.087 416.366 155.697C415.495 156.307 414.623 157.198 413.738 158.377C412.853 159.557 412.133 160.962 411.577 162.594L410.692 162.388C410.932 160.448 411.55 158.72 412.538 157.212C413.526 155.704 414.706 154.531 416.078 153.702C417.45 152.872 418.795 152.454 420.112 152.454C420.702 152.454 421.217 152.523 421.649 152.66C422.082 152.797 422.37 152.941 422.507 153.078L420.058 159.008C419.536 160.393 419.035 161.641 418.548 162.751L415.426 170.245L415.79 170.348L417.094 168.161C419.591 163.896 421.581 160.688 423.056 158.535C424.531 156.382 425.855 154.806 427.042 153.798C428.222 152.79 429.416 152.289 430.638 152.289C431.749 152.289 432.476 152.92 432.826 154.189C433.169 155.457 433.128 157.198 432.696 159.42C432.264 161.641 431.475 164.157 430.329 166.961C428.977 170.183 427.392 172.713 425.588 174.53C423.783 176.353 421.944 177.258 420.071 177.258C419.344 177.258 418.473 177.066 417.471 176.689C416.462 176.305 415.461 175.771 414.452 175.078L413.828 176.168L411.536 182.256C411.22 183.161 411.076 183.826 411.09 184.258C411.111 184.69 411.358 185.033 411.845 185.273C412.332 185.513 413.148 185.739 414.294 185.951L413.93 187.144H403.049L403.364 185.951C404.51 185.78 405.354 185.588 405.889 185.382H405.869ZM424.147 172.137C425.169 170.526 426.253 168.414 427.399 165.816C428.023 164.253 428.552 162.635 428.984 160.948C429.416 159.269 429.636 157.863 429.636 156.732C429.636 155.601 429.409 155.039 428.957 155.039C428.051 155.039 426.541 156.437 424.428 159.228C422.308 162.018 419.831 165.864 416.984 170.752L415.79 172.727C416.654 173.351 417.56 173.94 418.5 174.495C419.44 175.051 420.284 175.448 421.052 175.695C422.095 174.934 423.125 173.741 424.154 172.13L424.147 172.137Z" fill="white"/>
<path d="M434.274 175.572C433.3 174.447 432.799 172.857 432.765 170.814C432.73 168.764 433.217 166.447 434.226 163.842C435.612 160.098 437.382 157.233 439.537 155.258C441.691 153.284 443.941 152.289 446.309 152.289C448.01 152.289 449.348 152.852 450.316 153.983C451.29 155.107 451.791 156.698 451.825 158.741C451.859 160.791 451.393 163.108 450.418 165.713C449.033 169.456 447.249 172.322 445.08 174.297C442.912 176.271 440.648 177.265 438.288 177.265C436.586 177.265 435.248 176.703 434.281 175.572H434.274ZM442.94 172.507C444.621 170.615 446.02 168.092 447.132 164.938C447.962 162.751 448.518 160.756 448.799 158.953C449.074 157.15 449.094 155.731 448.854 154.689C448.573 154.586 448.243 154.483 447.866 154.374C447.482 154.271 447.084 154.216 446.672 154.216C445.005 154.216 443.338 155.162 441.67 157.054C440.003 158.946 438.597 161.469 437.451 164.623C436.655 166.81 436.113 168.805 435.838 170.608C435.557 172.411 435.543 173.83 435.784 174.873C435.989 174.975 436.298 175.078 436.696 175.188C437.094 175.291 437.519 175.346 437.972 175.346C439.605 175.346 441.259 174.399 442.947 172.507H442.94Z" fill="white"/>
<path d="M453.588 176.381L460.511 154.998C460.546 154.929 460.566 154.874 460.566 154.84C460.566 154.806 460.546 154.785 460.511 154.785C460.058 154.785 459.4 155.1 458.535 155.724C457.664 156.348 456.793 157.253 455.907 158.432C455.022 159.611 454.302 160.996 453.746 162.594L452.861 162.388C453.067 160.448 453.678 158.72 454.686 157.212C455.695 155.704 456.882 154.531 458.254 153.702C459.626 152.872 460.971 152.454 462.288 152.454C462.776 152.454 463.215 152.495 463.619 152.584C464.017 152.673 464.285 152.783 464.429 152.92L461.829 160.983C461.479 161.99 461.136 162.991 460.786 163.999C459.88 166.529 459.098 168.613 458.439 170.245L458.803 170.348L460.052 168.058C462.378 163.691 464.155 160.503 465.39 158.508C466.625 156.513 467.791 154.977 468.903 153.901C470.014 152.824 471.194 152.289 472.443 152.289C472.827 152.289 473.198 152.324 473.561 152.392C473.925 152.461 474.193 152.564 474.371 152.708L469.115 163.636L468.23 163.375L469.843 155.621C469.012 156.211 467.819 157.658 466.275 159.968C464.731 162.278 462.638 165.802 460.004 170.553L456.36 177.162L453.602 176.381H453.588Z" fill="white"/>
</g>
<defs>
<clipPath id="clip0_140_5841">
<rect width="679" height="196.48" fill="white" transform="translate(0 0.138611)"/>
</clipPath>
</defs>
</svg>
