<?xml version="1.0" encoding="UTF-8"?>
<svg width="823px" height="824px" viewBox="0 0 823 824" version="1.1" xmlns="http://www.w3.org/2000/svg" xmlns:xlink="http://www.w3.org/1999/xlink">
    <title>Group</title>
    <g id="Page-1" stroke="none" stroke-width="1" fill="none" fill-rule="evenodd">
        <g id="Group">
            <g id="vector"></g>
            <polygon id="Path" fill="#D9D9D9" fill-rule="nonzero" points="411.496 412 205.748 412 411.496 206.004"></polygon>
            <polygon id="Path" fill="#D9D9D9" fill-rule="nonzero" points="411.496 412 411.496 617.996 205.748 412"></polygon>
            <polygon id="Path" fill="#D9D9D9" fill-rule="nonzero" points="411.489 412 617.237 412 411.489 206.004"></polygon>
            <polygon id="Path" fill="#D9D9D9" fill-rule="nonzero" points="411.496 206.004 205.748 205.996 411.496 0"></polygon>
            <polygon id="Path" fill="#D9D9D9" fill-rule="nonzero" points="411.489 206.004 617.237 205.996 411.489 0"></polygon>
            <polygon id="Path" fill="#D9D9D9" fill-rule="nonzero" points="411.489 412 411.496 617.996 617.237 412"></polygon>
            <polygon id="Path" fill="#D9D9D9" fill-rule="nonzero" points="411.496 618.004 411.496 824 205.748 618.004"></polygon>
            <polygon id="Path" fill="#D9D9D9" fill-rule="nonzero" points="411.489 618.004 411.496 824 617.237 618.004"></polygon>
            <polygon id="Path" fill="#D9D9D9" fill-rule="nonzero" points="205.748 205.996 0 205.996 205.748 0"></polygon>
            <polygon id="Path" fill="#D9D9D9" fill-rule="nonzero" points="205.748 412 0 412 205.748 206.004"></polygon>
            <polygon id="Path" fill="#D9D9D9" fill-rule="nonzero" points="205.748 412 205.748 617.996 0 412"></polygon>
            <polygon id="Path" fill="#D9D9D9" fill-rule="nonzero" points="205.748 617.989 205.748 823.985 0 617.989"></polygon>
            <polygon id="Path" fill="#D9D9D9" fill-rule="nonzero" points="617.252 205.996 823 205.996 617.244 0"></polygon>
            <polygon id="Path" fill="#D9D9D9" fill-rule="nonzero" points="617.252 412 823 412 617.244 206.004"></polygon>
            <polygon id="Path" fill="#D9D9D9" fill-rule="nonzero" points="617.252 412 617.252 617.996 823 412"></polygon>
            <polygon id="Path" fill="#D9D9D9" fill-rule="nonzero" points="617.252 617.989 617.252 823.985 823 617.989"></polygon>
        </g>
    </g>
</svg>